<svg width="34" height="34" viewBox="0 0 34 34" fill="none" xmlns="http://www.w3.org/2000/svg">
<path d="M9.84116 0.0996056C7.32437 0.6707 5.23257 3.825 4.51538 8.14804C4.20991 10.0207 4.18335 11.7937 4.44898 12.8762C4.88726 14.6625 6.14234 16.1965 7.85562 17.0398C8.24741 17.2324 8.36694 17.3254 8.36694 17.4316C8.3603 17.5047 8.23413 20.6324 8.07476 24.3844C7.9021 28.4816 7.80913 31.3504 7.84234 31.5762C7.91538 32.1141 8.23413 32.7516 8.64585 33.1566C9.74819 34.259 11.5013 34.259 12.6037 33.1566C13.0154 32.7516 13.3341 32.1141 13.4072 31.5762C13.4404 31.3504 13.3474 28.4816 13.1748 24.3844C13.0154 20.6324 12.8892 17.5047 12.8826 17.4316C12.8826 17.3254 13.0021 17.2324 13.4005 17.0398C15.1072 16.1965 16.3623 14.6625 16.8005 12.8762C17.0662 11.7937 17.0396 10.0207 16.7341 8.14804C16.0501 4.05078 14.0978 0.923042 11.7537 0.192574C11.1826 0.013279 10.3724 -0.0265656 9.84116 0.0996056Z" fill="#307A59"/>
<path d="M19.4568 0.365234C19.4568 0.557812 19.3771 2.86875 19.2841 5.4918C19.1912 8.11484 19.1381 10.4523 19.158 10.6914C19.3306 12.4977 20.3533 14.0715 21.8673 14.8883L22.2459 15.0941V15.5324C22.2392 15.7715 22.0998 19.3973 21.9205 23.5875C21.7345 28.143 21.6216 31.357 21.6548 31.5762C21.7279 32.1141 22.0466 32.7516 22.4584 33.1566C23.5607 34.259 25.3138 34.259 26.4162 33.1566C26.8279 32.7516 27.1466 32.1141 27.2197 31.5762C27.2529 31.357 27.14 28.143 26.9541 23.5875C26.7748 19.3973 26.6353 15.7715 26.6287 15.5324V15.0941L27.0138 14.8883C28.5213 14.0715 29.5439 12.4977 29.7166 10.6914C29.7365 10.4523 29.6834 8.11484 29.5904 5.4918C29.4974 2.86875 29.4177 0.557812 29.4177 0.365234V0H28.5279H27.6447L27.5982 0.810154C27.5783 1.26172 27.4986 3.53945 27.4189 5.87695C27.3459 8.21445 27.2728 10.1668 27.2595 10.2066C27.2396 10.2664 27.0404 10.293 26.5623 10.293C26.0841 10.293 25.8849 10.2664 25.865 10.2066C25.8517 10.1668 25.7787 8.21445 25.7056 5.87695C25.6259 3.53945 25.5463 1.26172 25.5263 0.810154L25.4798 0H24.4373H23.3947L23.3482 0.810154C23.3283 1.26172 23.2486 3.53945 23.1689 5.87695C23.0959 8.21445 23.0228 10.1668 23.0095 10.2066C22.9896 10.2664 22.7904 10.293 22.3123 10.293C21.8341 10.293 21.6349 10.2664 21.615 10.2066C21.6017 10.1668 21.5287 8.21445 21.4556 5.87695C21.3759 3.53945 21.2963 1.26172 21.2763 0.810154L21.2298 0H20.3466H19.4568V0.365234Z" fill="#307A59"/>
</svg>
