<svg width="500" height="500" viewBox="0 0 500 500" fill="none" xmlns="http://www.w3.org/2000/svg">
<path d="M181.946 116.592C159.102 118.029 136.257 119.466 113.413 120.903C113.351 120.627 113.289 120.352 113.227 120.076C118.2 118.839 123.127 117.359 128.153 116.403C171.457 108.174 215.016 103.046 259.223 105.639C277.244 106.696 295.036 108.821 311.949 115.592C327.175 121.689 337.684 132.711 345.544 147.898C340.462 148.203 336.246 148.455 331.558 148.305C328.511 144.219 325.936 140.535 323.223 136.537C316.109 128.675 307.305 124.126 297.647 121.228C278.803 115.574 259.383 115.07 239.589 115.124C220.159 115.529 201.052 116.061 181.946 116.592Z" fill="#F6F7F5"/>
<path d="M142.92 347C137.941 361.408 133.019 375.835 127.874 390.183C127.474 391.299 125.519 392.549 124.273 392.564C109.847 392.73 95.4182 392.67 80.0815 392.67C84.9861 379.562 89.7024 366.956 94.7006 354.502C94.7136 357.752 96.6445 357.856 99.0563 358.065C109.238 358.95 118.563 355.725 127.891 352.424C132.912 350.647 137.911 348.81 142.92 347Z" fill="#E81C1F"/>
<path d="M314.225 367.92C316.539 370.464 318.992 372.898 321.138 375.578C325.366 380.857 329.424 386.272 334.305 392.607C331.48 392.607 329.583 392.606 327.685 392.607C314.732 392.616 301.778 392.72 288.828 392.53C286.983 392.502 284.536 391.549 283.426 390.171C276.355 381.395 269.579 372.379 262.841 362.95C262.985 361.135 263.417 359.623 262.926 358.522C261.12 354.468 259.008 350.551 256.816 346.195C261.164 344.562 264.498 344.105 267.849 347.225C269.976 349.205 272.496 351.182 275.195 352.024C278.904 353.181 282.241 354.01 283.972 358.12C284.433 359.214 287.027 359.495 288.691 359.98C292.578 361.115 296.528 362.04 300.391 363.247C305.036 364.698 309.617 366.353 314.225 367.92Z" fill="#F92B19"/>
<path d="M314.15 367.57C309.617 366.353 305.036 364.698 300.391 363.247C296.528 362.04 292.578 361.115 288.691 359.98C287.027 359.495 284.433 359.214 283.972 358.12C282.241 354.01 278.904 353.181 275.195 352.024C272.496 351.182 269.976 349.205 267.849 347.225C264.498 344.105 261.164 344.562 256.816 346.195C259.008 350.551 261.12 354.468 262.926 358.522C263.417 359.623 262.985 361.135 262.721 362.655C252.731 350.059 242.997 337.267 232.765 323.821C234.788 323.675 236.011 323.491 237.23 323.514C250.206 323.757 263.181 324.146 276.158 324.218C279.381 324.236 281.147 325.428 283.076 327.93C293.26 341.142 303.714 354.145 314.15 367.57Z" fill="#FA3519"/>
<path d="M111.762 222.112C113.402 221.16 114.975 220.057 116.694 219.279C148.362 204.946 182.004 197.02 215.62 189.1C236.128 184.269 256.732 179.813 277.378 175.602C292.99 172.418 308.703 169.675 324.455 167.287C326.975 166.905 329.934 169.416 332.564 170.982C325.419 173.461 318.399 175.549 311.29 177.624C311.2 177.612 311.095 177.76 310.657 177.767C305.961 178.796 301.703 179.817 297.04 180.758C293.218 181.319 289.8 181.961 286.03 182.551C285.205 182.496 284.732 182.494 284.268 182.376C284.279 182.26 283.94 182.213 283.94 182.213C283.94 182.213 283.777 182.447 283.288 182.508C277.624 183.743 272.451 184.918 266.835 185.985C250.988 189.089 235.582 192.301 219.97 195.486C219.478 195.511 219.239 195.648 218.665 195.85C217.338 196.17 216.394 196.509 215.056 196.783C208.104 198.167 201.545 199.617 194.605 201.167C190.152 202.237 186.079 203.207 181.621 204.148C176.494 205.493 171.752 206.867 166.729 208.221C165.956 208.442 165.465 208.684 164.585 208.908C162.01 209.548 159.824 210.206 157.26 210.879C145.611 214.055 134.34 217.217 122.69 220.413C118.794 221.003 115.278 221.557 111.762 222.112Z" fill="#F4F6F2"/>
<path d="M143.03 346.836C137.911 348.81 132.912 350.647 127.891 352.424C118.563 355.725 109.238 358.95 99.0564 358.065C96.6446 357.856 94.7137 357.752 94.9324 354.218C97.7495 346.016 100.616 338.249 103.979 330.05C104.604 329.035 104.733 328.452 104.862 327.869C104.862 327.869 104.813 327.921 105.177 327.898C107.394 325.723 109.248 323.57 110.801 321.767C113.775 322.201 116.592 322.324 119.224 323.084C121.523 323.747 124.019 324.697 125.714 326.283C129.343 329.68 140.501 332.033 143.776 330.146C144.537 332.762 145.335 335.505 146.132 338.249C145.609 340.01 145.086 341.77 144.054 343.964C143.403 345.023 143.261 345.649 143.119 346.275C143.119 346.275 143.139 346.671 143.03 346.836Z" fill="#FC291A"/>
<path d="M243.063 240.165C246.166 236.964 249.269 233.764 252.283 230.655C248.401 227.244 252.672 223.971 253.149 220.057C254.141 218.028 254.702 216.549 255.319 214.922C256.876 217.082 257.571 221.028 261.508 217.789C263.447 218.971 265.168 219.876 267.067 221.035C267.798 220.784 268.351 220.279 268.953 219.516C269.31 218.841 269.619 218.424 270.204 217.83C271.29 217.616 272.098 217.58 272.906 217.543C272.883 223.094 276.15 221.767 279.675 221.134C286.01 219.996 292.753 215.582 298.519 222.605C298.769 222.91 299.466 222.818 299.928 222.984C302.457 223.896 304.978 224.832 308.44 226.104C310.054 223.451 312.15 220.005 314.247 216.56C315.015 216.189 315.784 215.818 316.98 215.599C320.264 216.353 323.206 216.707 324.853 219.72C325.096 220.166 326.359 220.054 327.15 220.201C319.984 228.497 313.379 237.377 302.599 244.151C304.986 238.065 306.828 233.369 308.669 228.674C308.18 228.356 307.691 228.038 307.202 227.719C301.056 235.42 294.476 242.601 284.624 247.912C285.275 245.159 285.649 243.574 286.195 241.264C283.444 242.707 281.196 243.886 278.274 245.161C277.12 245.928 276.64 246.6 276.161 247.271C276.161 247.271 276.154 247.16 275.846 247.085C274.461 245.557 273.383 244.103 272.605 242.431C274.579 241.151 276.253 240.09 277.928 239.029C277.668 238.37 277.408 237.711 277.149 237.052C273.197 238.084 269.246 239.117 264.991 239.933C263.241 236.212 260.927 236.459 258.537 238.53C257.09 239.783 256.005 241.453 254.733 242.602C253.823 241.71 252.775 240.536 252.082 240.718C250.362 241.168 248.805 242.237 246.851 243.02C245.367 242.044 244.215 241.104 243.063 240.165ZM277.775 226.459C278.042 230.557 279.98 233.468 284.159 234.046C290.901 234.979 295.524 231.286 299.334 227.097C292.602 225.82 285.927 224.513 279.22 223.394C278.855 223.333 278.227 224.842 277.775 226.459ZM265.205 228.722C265.436 230.432 265.668 232.142 265.899 233.852C267.261 233.589 269.026 233.749 269.868 232.943C270.687 232.159 270.56 230.387 270.848 229.048C269.145 228.771 267.441 228.495 265.205 228.722Z" fill="#F66F1A"/>
<path d="M323.361 136.852C325.936 140.536 328.511 144.219 331.116 148.24C325.402 149.11 319.659 149.642 313.454 149.731C311.856 148.108 310.909 146.224 309.553 145.858C299.212 143.069 288.858 140.255 278.376 138.089C269.19 136.19 259.788 135.357 250.563 133.625C240.365 131.709 230.223 130.894 219.898 132.606C217.887 131.828 215.956 131.418 213.684 131.006C212.887 131.005 212.431 131.006 211.584 131.007C208.812 130.411 206.432 129.816 204.465 129.116C212.552 127.72 220.227 126.427 227.902 125.134C238.702 124.759 249.502 124.384 261.07 124.028C262.213 124.031 262.59 124.014 263.314 123.968C267.373 124.435 271.167 124.597 274.782 125.484C289.199 129.021 303.552 132.814 317.952 136.42C319.682 136.853 321.554 136.722 323.361 136.852Z" fill="#FDAE24"/>
<path d="M146.373 337.977C145.334 335.505 144.536 332.762 143.776 330.146C140.501 332.033 129.342 329.68 125.713 326.283C124.019 324.697 121.523 323.747 119.224 323.084C116.592 322.324 113.775 322.201 110.801 321.767C109.248 323.57 107.394 325.723 105.173 327.862C108.629 317.316 112.282 306.716 116.449 296.32C117.104 294.687 120.085 293.986 122.669 293.078C125.013 294.537 126.588 295.927 128.371 296.96C130.032 297.922 131.979 298.383 133.684 299.285C136.056 300.54 138.214 302.241 140.657 303.311C143.509 304.56 146.522 305.525 149.551 306.261C152.683 307.022 153.199 308.879 152.997 311.738C152.896 313.164 153.859 314.665 154.34 316.132C151.765 323.323 149.189 330.514 146.373 337.977Z" fill="#FC3019"/>
<path d="M211.976 131.007C212.431 131.006 212.887 131.005 213.762 131.376C216.114 132.156 218.046 132.565 219.978 132.975C230.223 130.894 240.365 131.709 250.563 133.625C259.788 135.357 269.19 136.19 278.376 138.089C288.858 140.255 299.212 143.069 309.553 145.858C310.909 146.224 311.856 148.108 313.001 149.679C310.675 150.406 308.339 150.742 305.207 151.113C301.785 151.664 299.139 152.693 296.539 152.586C291.791 152.389 287.07 151.519 282.337 150.93C282.337 150.93 282.101 150.971 281.899 150.682C281.445 150.179 281.155 150.078 280.826 150.091C276.447 148.85 272.067 147.61 267.082 145.923C263.313 144.984 260.149 144.491 256.921 143.633C255.318 142.506 253.849 141.326 252.227 141.052C243.795 139.627 235.362 137.972 226.857 137.275C216.327 136.412 205.727 136.379 195.155 136.051C191.432 135.935 187.703 136.004 183.98 135.596C183.927 134.415 183.872 133.629 183.847 132.836C183.876 132.83 183.918 132.875 184.131 132.86C184.635 132.758 184.845 132.578 185.279 132.158C186.244 131.952 186.905 131.892 187.994 131.885C189.957 131.597 191.492 131.256 193.428 130.88C196.519 130.431 199.211 130.015 202.058 129.971C206.36 133.073 209.821 133.309 211.976 131.007Z" fill="#FCA21B"/>
<path d="M273.809 278.999C273.947 276.864 274.086 274.729 274.264 271.984C278.883 275.933 283.211 279.834 287.749 283.474C299.154 292.621 310.989 301.265 322.003 310.856C329.874 317.711 336.64 325.825 344.006 333.273C347.508 336.815 351.24 340.13 354.897 343.517C361.592 349.718 364.505 358.461 362.809 368.954C361.058 366.988 359.706 365.47 358.225 363.305C355.613 358.402 353.743 353.592 350.515 350.004C343.854 342.601 336.467 335.85 329.254 328.508C325.217 323.684 321.883 318.445 317.273 314.834C307.877 307.475 297.794 300.994 287.773 293.892C282.97 288.754 278.389 283.876 273.809 278.999Z" fill="#F4F6F2"/>
<path d="M359.192 282.441C358.998 282.034 358.804 281.627 358.344 280.65C356.942 279.039 355.978 277.507 354.642 277.043C349.004 275.087 343.306 273.253 337.528 271.773C334.464 270.988 331.19 271.019 328.012 270.682C327.606 270.639 327.2 270.596 326.423 270.217C325.739 269.651 325.434 269.66 325.137 269.907C322.519 268.915 319.901 267.924 317.231 266.913C319.839 262.329 323.309 261.178 328.148 262.444C335.846 264.457 343.688 265.913 351.422 267.801C358.433 269.513 363.975 272.481 366.597 280.341C369.303 288.457 374.057 295.866 377.33 303.826C379.508 309.123 381.188 314.757 382.101 320.401C382.839 324.962 380.985 329.322 376.788 331.966C375.938 332.502 374.354 331.872 373.179 331.119C373.859 327.402 375.597 324.038 374.861 321.351C372.779 313.759 369.682 306.445 366.955 298.65C364.347 292.999 361.769 287.72 359.192 282.441Z" fill="#F4F6F2"/>
<path d="M222.693 225.113C220.18 225.181 217.666 225.249 214.249 225.167C205.132 225.259 196.726 223.938 188.979 228.002C188.664 228.116 188.348 228.23 187.392 228.169C185.231 226.04 185.231 226.04 190.957 221.555C189.321 221.334 188.164 221.178 186.555 221.014C183.394 221.012 180.684 221.017 177.975 221.022C177.975 221.022 178 220.999 177.927 220.654C176.425 219.583 174.996 218.856 173.274 217.981C174.62 217.21 175.762 216.557 176.915 215.909C176.928 215.916 176.934 215.935 177.24 215.935C178.038 215.619 178.529 215.303 179.101 214.881C179.182 214.775 179.437 214.851 179.746 214.813C180.362 214.513 180.668 214.252 180.983 213.991C180.993 213.991 181.001 213.974 181.312 213.945C182.094 213.316 182.564 212.715 183.109 211.868C183.445 211.412 183.706 211.202 184.205 210.89C184.659 210.524 184.875 210.257 185.479 209.995C189.543 210.207 193.531 211.789 196.488 207.8C197.508 208.351 198.253 208.743 199.229 209.385C201.073 211.576 202.661 213.541 204.314 215.448C205.101 216.355 206.014 217.153 206.927 218.362C208.843 221.951 211.371 221.002 213.529 219.388C214.006 219.031 213.114 216.842 212.989 215.148C214.091 213.197 215.057 211.596 216.453 209.996C222.871 211.336 228.859 212.674 234.955 214.184C235.063 214.355 235.085 214.761 235.114 215.133C237.091 215.674 239.038 215.842 240.998 216.372C241.345 218.84 241.679 220.947 242.014 223.053C242.014 223.053 241.988 223.016 241.781 223.149C241.43 223.598 241.286 223.913 241.142 224.229C241.142 224.229 241.124 224.099 240.911 224.202C240.457 224.811 240.216 225.317 239.976 225.823C238.841 225.944 237.707 226.066 236.074 225.828C234.404 225.547 233.232 225.625 232.059 225.702C230.908 225.691 229.756 225.68 227.871 225.379C225.656 225.098 224.175 225.105 222.693 225.113Z" fill="#F97112"/>
<path d="M440.002 194.163C437.538 192.745 435.074 191.327 432.297 189.697C431.984 189.487 431.874 189.434 431.759 189.175C429.562 186.9 427.48 184.884 425.266 182.545C420.339 176.521 415.978 170.527 408.704 167.356C394.054 160.97 378.714 160.585 362.69 161.153C356.092 161.116 349.987 161.116 344.607 161.116C343.595 162.325 342.803 163.271 342.011 164.217C339.324 162.067 336.637 159.918 333.061 157.056C352.886 155.44 371.503 154.748 390.222 156.46C400.34 157.386 409.751 160.051 418.6 164.863C420.302 165.788 422.402 166.913 423.153 168.498C427.415 177.497 434.535 183.894 441.914 190.129C443.572 191.53 445.177 193.108 441.088 194.271C440.356 194.249 440.179 194.206 440.002 194.163Z" fill="#EFF1EC"/>
<path d="M154.572 315.848C153.859 314.665 152.896 313.164 152.997 311.738C153.199 308.879 152.683 307.022 149.551 306.261C146.522 305.525 143.509 304.56 140.657 303.311C138.214 302.241 136.056 300.54 133.684 299.285C131.979 298.383 130.032 297.922 128.371 296.96C126.588 295.927 125.013 294.537 123.038 293.077C136.776 287.348 151.302 283.756 166.771 281.39C162.631 293.213 158.717 304.388 154.572 315.848Z" fill="#FA3519"/>
<path d="M348.169 224.028C339.449 231.496 331.092 238.837 322.634 246.061C317.076 250.808 311.423 255.447 305.695 259.987C304.585 260.867 302.933 261.064 302.609 262.098C314.952 248.948 326.681 235.144 339.801 222.82C354.766 208.763 373.379 205.502 393.275 209.211C395.913 209.703 398.383 211.096 400.878 212.648C381.824 209.514 364.781 214.938 348.169 224.028Z" fill="#E2ECEE"/>
<path d="M139.874 186.863C142.174 180.392 144.152 173.774 146.979 167.542C147.795 165.742 151.056 165.052 153.632 164.27C155.461 170.863 160.425 174.413 164.205 178.907C166.983 182.21 168.785 186.332 171.022 190.089C161.94 192.707 152.858 195.325 143.393 197.528C141.964 193.697 140.919 190.28 139.874 186.863Z" fill="#385763"/>
<path d="M323.223 136.537C321.555 136.722 319.683 136.853 317.952 136.42C303.552 132.814 289.199 129.021 274.782 125.484C271.167 124.597 267.374 124.435 263.238 123.597C261.156 122.864 259.497 122.474 257.838 122.084C257.838 122.084 257.398 122.161 256.93 121.802C254.706 121.273 252.948 121.104 251.19 120.934C250.984 120.957 250.777 120.98 250.003 120.672C247.571 119.896 245.535 119.775 243.891 118.91C242.349 118.099 241.221 116.501 239.912 115.25C259.383 115.07 278.803 115.574 297.647 121.228C307.306 124.126 316.109 128.675 323.223 136.537ZM260.157 119.728C260.059 119.728 259.962 119.729 260.157 119.728Z" fill="#FDBF31"/>
<path d="M314.354 216.243C312.15 220.005 310.053 223.451 308.439 226.104C304.978 224.832 302.457 223.896 299.928 222.984C299.466 222.818 298.769 222.91 298.519 222.605C292.752 215.582 286.01 219.996 279.675 221.134C276.15 221.767 272.883 223.094 272.905 217.543C272.098 217.58 271.29 217.616 270.191 217.437C269.906 215.661 269.911 214.102 269.931 212.136C271.426 208.734 272.349 205.294 276.194 204.068C276.332 204.06 276.611 204.061 276.664 204.453C276.736 205.901 276.755 206.956 276.642 208.127C276.66 208.497 276.809 208.751 277.065 209.13C277.172 209.254 277.137 209.58 277.176 209.864C277.469 210.42 277.722 210.692 278.004 210.972C278.034 210.981 278.032 211.042 278.126 211.259C278.416 211.745 278.676 211.915 279.266 212.031C279.691 212.159 279.85 212.243 280.066 212.595C280.752 212.593 281.381 212.323 282.017 212.021C282.022 211.989 282.083 212.013 282.284 211.928C282.738 211.681 282.924 211.461 283.035 211.113C283.027 211.041 283.171 211.042 283.355 210.942C283.768 210.67 283.936 210.451 284.037 210.117C284.032 210.049 284.167 210.061 284.477 209.998C285.173 209.265 285.56 208.597 285.972 207.962C285.997 207.996 285.927 207.95 286.308 207.965C287.452 207.981 288.214 207.981 289.38 207.987C290.858 207.995 291.932 207.996 293.008 208.378C293.706 210.521 294.404 212.284 295.179 214.133C295.256 214.219 295.144 214.421 295.174 214.727C295.45 215.348 295.694 215.662 296.054 216.086C296.169 216.195 296.148 216.512 296.199 216.816C296.541 217.39 296.833 217.66 297.425 218.136C300.503 221.485 302.764 220.088 303.868 217.081C305.59 212.386 305.858 207.532 303.305 203.039C306.677 203.026 309.599 203.026 312.457 203.026C312.959 205.931 313.481 208.952 314.003 211.973C314.003 211.973 314.015 211.991 314.022 212.313C314.057 212.854 314.083 213.072 314.11 213.29C314.227 214.168 314.345 215.047 314.354 216.243Z" fill="#FA7F16"/>
<path d="M155.025 154.129C145.635 156.844 136.245 159.559 126.352 161.985C123.923 157.213 121.998 152.73 120.072 148.247C128.146 145.199 136.22 142.151 144.712 139.458C146.227 141.221 147.409 142.573 148.408 144.049C150.662 147.376 152.825 150.765 155.025 154.129Z" fill="#436B7B"/>
<path d="M155.409 154.12C152.825 150.765 150.662 147.376 148.408 144.049C147.409 142.573 146.228 141.221 145.087 139.477C163.115 135.091 181.184 131.041 199.391 127.3C196.924 128.357 194.321 129.104 191.388 129.906C189.894 130.585 188.731 131.209 187.567 131.832C186.906 131.892 186.244 131.952 185.045 132.118C184.126 132.274 183.93 132.491 183.918 132.875C183.918 132.875 183.877 132.83 183.479 132.778C181.184 133.213 179.286 133.7 177.547 134.146C177.238 136.195 176.969 137.971 176.739 139.8C176.777 139.852 176.855 139.748 176.53 139.771C175.917 140.1 175.63 140.407 175.222 140.574C175.101 140.433 174.757 140.57 174.402 140.547C173.616 141.367 173.186 142.21 172.516 143.284C170.611 144.043 168.946 144.572 166.78 145.26C168.418 146.115 169.454 146.655 170.489 147.196C167.978 148.938 165.746 150.487 163.515 152.035C160.941 152.727 158.367 153.418 155.409 154.12Z" fill="#568AA3"/>
<path d="M367.997 174.858C367.54 174.828 367.083 174.798 366.357 174.221C369.366 171.425 372.442 169.396 376.978 170.732C383.202 172.566 389.661 173.606 396.019 174.987C396.019 174.987 396.004 175.002 396.196 175.26C397.922 175.717 399.457 175.915 400.991 176.114C408.356 177.374 413.671 181.666 417.643 188.023C415.484 188.011 413.331 187.949 411.742 186.971C406.868 183.974 401.958 184.368 396.886 186.049C393.083 186.359 389.281 186.668 385.479 186.978C385.34 186.712 385.201 186.445 385.062 186.179C387.148 184.601 389.234 183.023 391.32 181.445C391.212 181.11 391.104 180.775 390.997 180.44C386.708 181.65 382.419 182.86 377.382 184.018C375.432 182.709 374.4 181.197 372.987 180.256C371.174 179.049 369.055 178.301 367.068 177.355C367.6 177.07 368.131 176.784 369.052 176.098C369.453 175.302 369.465 174.908 369.478 174.514C368.984 174.629 368.491 174.743 367.997 174.858Z" fill="#FDAE24"/>
<path d="M176.903 215.903C175.761 216.557 174.62 217.21 173.274 217.981C174.996 218.856 176.424 219.583 177.917 220.668C160.988 220.359 144.392 222.931 127.261 226.966C125.374 224.654 124.221 222.516 123.068 220.378C134.34 217.217 145.611 214.055 157.713 210.925C160.687 210.279 162.83 209.603 164.973 208.926C165.465 208.684 165.956 208.442 166.966 208.431C168.194 208.992 168.904 209.323 169.614 209.653C169.111 209.855 168.608 210.057 168.105 210.259C168.443 211.84 168.78 213.421 169.358 215.318C172.033 215.724 174.468 215.813 176.903 215.903Z" fill="#F66F1A"/>
<path d="M171.423 190.083C168.785 186.332 166.983 182.21 164.205 178.907C160.425 174.413 155.461 170.863 154.024 164.321C157.738 162.993 161.495 162.033 165.639 161.479C172.643 167.904 179.259 173.921 185.876 179.939C184.849 188.386 178.084 188.88 171.423 190.083Z" fill="#436B7B"/>
<path d="M265.781 289.427C255.195 285.057 244.609 280.688 233.789 276.222C234.517 275.082 235.284 273.883 236.137 272.548C232.955 268.377 229.611 270.85 226.368 272.278C224.624 265.148 227.316 259.57 231.719 254.15C233.155 255.675 233.956 257.331 234.718 259.363C234.679 262.298 234.679 264.856 234.679 267.414C235.716 268.015 236.754 268.616 237.791 269.217C239.03 267.091 240.27 264.965 241.865 262.79C244.736 261.794 245.437 263.147 244.743 265.15C243.857 267.711 245.085 268.06 246.949 268.39C246.651 270.194 246.058 271.754 246.393 273.081C247.204 276.293 248.973 279.417 252.744 278.836C256.876 278.2 255.34 274.663 255.383 272.163C258.398 274.697 261.116 277.062 263.499 279.352C262.657 279.895 261.61 280.65 261.726 281.113C263.077 286.496 267.442 287.18 271.68 287.632C269.49 288.345 267.635 288.886 265.781 289.427Z" fill="#EF3F1C"/>
<path d="M219.051 291.939C227.411 296.273 235.77 300.607 245.261 305.527C236.057 305.527 227.629 305.553 219.202 305.481C218.471 305.475 217.526 305.015 217.052 304.453C210.566 296.755 204.146 289.002 197.71 281.262C197.989 280.852 198.267 280.441 198.546 280.03C204.115 281.613 209.684 283.195 215.598 285.191C214.773 288.798 214.625 291.491 219.051 291.939Z" fill="#FA3519"/>
<path d="M92.9783 176.986C80.8686 183.492 68.7588 189.999 55.7935 196.964C61.5602 181.289 73.3221 172.604 86.6115 165.296C89.0095 169.41 90.9939 173.198 92.9783 176.986Z" fill="#1C2E3B"/>
<path d="M122.69 220.413C124.221 222.516 125.374 224.654 126.859 226.948C113.144 231.807 99.0816 236.466 85.06 241.245C82.2207 242.213 79.5349 243.632 76.1609 244.949C75.0331 245.391 74.5226 245.726 74.0122 246.062C73.7077 246.3 73.4031 246.539 72.5199 246.858C71.2948 247.291 70.6483 247.644 70.0018 247.998C70.0018 247.998 69.7788 248.232 69.3728 248.124C68.6715 247.612 68.3763 247.206 68.0811 246.801C68.3899 246.535 68.6987 246.269 69.6547 245.884C71.1647 245.097 72.0275 244.429 72.8903 243.761C72.8903 243.761 72.9165 243.894 73.1287 243.788C73.5259 243.345 73.711 243.008 73.896 242.671C84.0482 236.923 94.1792 231.136 104.369 225.456C106.598 224.213 109.037 223.347 111.57 222.21C115.278 221.557 118.794 221.003 122.69 220.413Z" fill="#F1601B"/>
<path d="M138.063 269.276C160.77 260.744 184.182 258.284 208.206 261.099C197.062 262.744 185.84 263.99 174.796 266.144C163.711 268.306 152.803 271.371 141.287 273.738C139.859 272.049 138.961 270.662 138.063 269.276Z" fill="#EA4721"/>
<path d="M187.005 221.022C188.163 221.178 189.321 221.334 190.957 221.555C185.23 226.04 185.23 226.04 187.152 228.078C178.842 230.781 170.132 233.402 161.422 236.022C161.491 236.428 161.559 236.835 161.628 237.241C170.064 237.241 178.501 237.241 186.938 237.241C186.958 237.687 186.979 238.134 186.999 238.58C178.296 239.748 169.593 240.917 160.44 241.695C159.136 239.276 158.714 236.849 157.313 235.318C155.616 233.463 153.092 232.366 150.925 230.942C160.635 228.6 170.344 226.261 180.053 223.916C181.639 223.533 183.22 223.126 185.22 222.322C186.092 221.616 186.549 221.319 187.005 221.022Z" fill="#F1601B"/>
<path d="M186.055 179.63C179.259 173.921 172.642 167.904 166.037 161.531C175.284 159.615 184.518 158.055 194.989 156.285C191.715 164.898 188.975 172.109 186.055 179.63Z" fill="#568AA3"/>
<path d="M329.38 328.831C336.468 335.85 343.854 342.601 350.515 350.004C353.743 353.592 355.613 358.403 358.012 363.064C349.189 357.453 340.093 351.88 331.876 345.222C328.266 342.296 326.448 337.16 323.97 332.351C325.876 330.726 327.628 329.779 329.38 328.831Z" fill="#F4581B"/>
<path d="M119.723 148.296C121.998 152.73 123.923 157.213 125.965 162.072C118.979 165.341 111.876 168.236 104.371 170.834C102.314 166.362 100.659 162.187 99.0039 158.011C105.794 154.789 112.585 151.567 119.723 148.296Z" fill="#385763"/>
<path d="M219.224 291.589C214.625 291.491 214.773 288.798 215.983 285.239C228.007 288.693 239.978 292.551 251.983 296.301C254.444 297.07 257.052 297.982 259.556 297.884C267.773 297.563 274.184 302.068 281.194 305.05C271.832 307.099 263.36 304.571 254.662 301.52C243.125 297.473 231.171 294.611 219.224 291.589Z" fill="#EA4721"/>
<path d="M272.306 242.649C273.383 244.103 274.461 245.557 275.891 247.118C273.698 251.008 271.152 254.791 268.067 259.022C265.936 260.316 264.345 261.163 262.624 261.823C261.694 262.172 260.892 262.708 259.907 262.96C258.484 262.223 257.244 261.767 256.314 261.105C262.043 258.434 264.507 253.67 267.035 247.917C260.719 249.174 256.959 252.654 253.554 256.753C251.532 254.275 249.746 252.041 248.325 249.814C250.712 247.525 252.734 245.231 254.757 242.936C256.005 241.453 257.09 239.783 258.537 238.53C260.927 236.459 263.241 236.212 264.807 240.214C264.397 241.548 263.868 242.384 262.852 243.99C266.635 243.454 269.47 243.051 272.306 242.649Z" fill="#F1601B"/>
<path d="M363.183 161.19C378.714 160.585 394.054 160.97 408.704 167.356C415.978 170.527 420.339 176.521 424.842 182.585C423.989 182.984 423.426 183.021 422.863 183.059C414.855 170.705 409.338 168.718 394.165 172.843C390.461 166.418 383.548 168.713 378.517 166.042C373.15 164.419 368.166 162.804 363.183 161.19Z" fill="#FDBF31"/>
<path d="M116.126 253.386C104.027 257.641 91.928 261.896 79.8292 266.15C79.5173 265.509 79.2054 264.868 78.8936 264.228C89.8986 256.814 101.165 249.823 113.892 244.577C115.784 245.565 117.244 246.189 118.482 247.111C119.476 247.852 120.201 248.955 120.063 248.801C118.232 250.933 117.179 252.16 116.126 253.386Z" fill="#EF3F1C"/>
<path d="M163.992 152.029C165.746 150.487 167.977 148.938 170.489 147.196C169.454 146.655 168.418 146.115 166.78 145.26C168.945 144.572 170.611 144.043 172.921 143.266C174.37 143.009 175.175 143 176.399 142.999C181.718 143.043 186.63 142.863 191.511 143.171C197.96 143.578 204.374 144.635 210.824 144.897C215.08 145.07 219.37 144.105 223.649 144.053C234.76 143.916 245.873 144.001 256.985 143.998C260.149 144.491 263.313 144.984 266.743 145.759C233.719 143.237 200.735 145.824 167.935 151.668C166.795 151.872 165.625 151.908 163.992 152.029Z" fill="#E88B1F"/>
<path d="M293.007 207.998C291.932 207.996 290.857 207.995 289.384 207.614C288.613 206.135 288.24 205.035 287.86 203.691C287.853 203.446 288.062 203.003 288.309 202.771C288.303 201.381 288.05 200.223 287.582 198.987C287.111 198.711 286.972 198.449 287.036 197.755C289.529 196.47 292.427 194.232 294.247 194.907C298.415 196.452 297.739 193.911 298.383 191.643C300.686 191.322 302.637 191.111 304.93 190.905C305.858 190.623 306.442 190.336 307.138 189.92C307.25 189.791 307.591 189.81 307.979 189.862C310.886 192.473 313.405 195.033 315.923 197.593C315.328 202.089 314.732 206.585 314.069 211.526C313.481 208.952 312.959 205.931 312.457 203.026C309.599 203.026 306.677 203.026 303.002 202.877C300.573 201.241 298.897 199.753 296.801 197.891C295.917 200.305 295.423 201.653 294.625 203.183C293.882 204.908 293.445 206.453 293.007 207.998Z" fill="#F78E1A"/>
<path d="M262.753 262.009C264.345 261.163 265.936 260.316 267.826 259.26C267.053 266.336 267.274 273.293 273.481 278.904C278.389 283.876 282.97 288.754 287.766 294.257C287.227 296.671 286.473 298.462 285.719 300.252C279.236 296.792 272.753 293.333 266.025 289.65C267.635 288.886 269.49 288.345 271.913 287.474C270.561 285.134 268.641 283.124 267.038 280.985C268.83 280.05 270.599 279.398 268.441 277.383C266.591 275.657 264.862 273.802 263.019 271.552C262.889 268.07 262.821 265.04 262.753 262.009Z" fill="#F4581B"/>
<path d="M366.723 177.409C369.055 178.301 371.174 179.049 372.987 180.256C374.399 181.197 375.432 182.709 377.009 184.053C372.204 187.087 367.024 190.035 361.409 192.718C355.149 191.902 349.323 191.352 343.498 190.801C351.124 186.356 358.751 181.91 366.723 177.409Z" fill="#F89F1F"/>
<path d="M285.73 300.238C286.473 298.461 287.227 296.671 287.987 294.516C297.794 300.994 307.877 307.475 317.273 314.834C321.883 318.445 325.217 323.684 329.254 328.508C327.627 329.779 325.876 330.726 323.993 331.98C323.705 324.446 318.149 320.706 312.374 317.108C304.687 312.318 297.021 307.493 289.263 302.114C289.454 299.119 289.454 299.119 285.775 300.226C285.775 300.226 285.742 300.223 285.73 300.238Z" fill="#F1601B"/>
<path d="M383.06 196.508C383.06 196.508 383.283 196.088 383.761 195.938C384.503 195.355 384.766 194.923 385.029 194.49C388.301 192.293 391.573 190.097 395.633 187.924C404.432 188.997 411.796 191.588 417.973 197.001C416.221 197.585 414.489 198.589 412.712 198.677C406.464 198.986 400.2 198.979 393.089 199.029C389.177 198.146 386.119 197.327 383.06 196.508Z" fill="#F78E1A"/>
<path d="M327.132 220.172C326.359 220.054 325.096 220.166 324.853 219.72C323.206 216.707 320.264 216.353 317.239 215.472C320.751 210.831 324.432 206.468 328.777 202.144C330.696 202.263 332.035 202.093 333.192 202.475C336.515 203.57 339.765 204.889 343.043 206.12C339.202 209.648 335.361 213.176 331.015 216.944C330.258 217.363 330.08 217.598 329.973 217.887C329.973 217.887 329.978 217.967 329.616 218.006C328.54 218.766 327.824 219.487 327.109 220.208C327.109 220.208 327.114 220.143 327.132 220.172Z" fill="#FA7F16"/>
<path d="M282.524 151.184C287.07 151.519 291.791 152.389 296.539 152.586C299.139 152.693 301.785 151.664 304.797 151.108C309.56 153.688 313.938 156.307 318.998 159.335C311.334 160.741 304.266 162.099 297.165 163.259C296.311 163.399 295.113 162.653 294.361 161.992C290.427 158.532 286.585 154.967 282.524 151.184Z" fill="#F78E1A"/>
<path d="M150.941 230.959C153.092 232.366 155.616 233.463 157.313 235.318C158.714 236.849 159.136 239.276 160.008 241.67C160.024 242.034 160.021 242.004 159.704 242.008C158.606 242.283 157.825 242.554 157.044 242.824C156.623 242.926 156.202 243.028 155.081 243.075C153.257 243.34 152.132 243.661 151.008 243.982C146.938 245.016 142.869 246.05 138.542 246.769C139.133 245.561 139.982 244.666 141.698 242.86C137.312 240.987 133.579 239.394 129.846 237.8C132.47 236.811 135.094 235.822 138.442 234.865C139.785 234.574 140.402 234.252 141.02 233.929C141.02 233.929 141.22 233.742 141.701 233.823C142.791 233.604 143.4 233.305 144.008 233.005C144.008 233.005 144.247 232.791 144.825 232.865C147.072 231.764 150.854 236.442 150.96 230.935C150.96 230.935 150.956 230.976 150.941 230.959Z" fill="#F4581B"/>
<path d="M343.36 205.993C339.764 204.889 336.515 203.57 333.192 202.475C332.035 202.093 330.696 202.263 329.084 202.033C333.44 198.239 338.151 194.593 343.18 190.875C349.323 191.352 355.149 191.902 361.071 192.796C361.168 193.139 361.103 193.105 360.893 193.167C360.453 193.468 360.221 193.707 359.99 193.946C359.99 193.946 359.986 194.006 359.664 194.037C358.917 194.437 358.492 194.806 358.067 195.174C353.27 198.738 348.474 202.303 343.36 205.993Z" fill="#F78E1A"/>
<path d="M366.985 299.021C369.682 306.445 372.779 313.759 374.861 321.351C375.598 324.038 373.859 327.402 373.038 330.797C366.364 324.967 364.379 316.855 362.994 307.655C363.276 303.689 361.56 299.53 366.985 299.021Z" fill="#F66F1A"/>
<path d="M129.862 237.824C133.579 239.394 137.312 240.987 141.698 242.86C139.982 244.666 139.133 245.561 138.137 246.756C130.968 249.128 123.945 251.2 116.524 253.329C117.179 252.16 118.232 250.933 120.063 248.801C120.201 248.955 119.476 247.852 118.482 247.111C117.244 246.189 115.784 245.565 114.24 244.524C118.808 242.226 123.556 240.217 128.795 238.323C129.485 238.225 129.682 238.011 129.88 237.798C129.88 237.798 129.878 237.848 129.862 237.824Z" fill="#F44B1A"/>
<path d="M327.966 271.123C331.191 271.019 334.464 270.988 337.528 271.773C343.306 273.253 349.004 275.087 354.642 277.043C355.978 277.507 356.942 279.039 358.079 280.437C342.843 278.731 327.605 276.667 311.322 274.462C317.505 273.383 322.713 272.474 327.966 271.123Z" fill="#568AA3"/>
<path d="M242.243 222.807C241.679 220.947 241.345 218.84 240.999 216.118C240.981 215.334 240.975 215.165 240.978 214.988C240.988 214.98 241.011 214.974 241.342 214.984C242.446 214.424 243.218 213.854 244.252 213.058C247.031 209.888 249.549 206.944 252.042 204.017C252.017 204.035 251.957 204.044 252.218 204.047C252.591 203.732 252.703 203.415 253.224 203.073C256.994 203.123 259.849 203.721 260.151 208.003C260.204 208.755 261.562 209.416 262.243 210.493C261.875 213.082 261.582 215.296 261.29 217.511C257.571 221.028 256.876 217.082 255.319 214.922C254.702 216.549 254.141 218.028 253.336 219.734C253.319 218.082 253.547 216.202 253.855 213.657C249.696 216.91 246.084 219.735 242.243 222.807Z" fill="#FA7F16"/>
<path d="M316.169 197.398C313.405 195.033 310.886 192.473 308.216 189.622C309.871 188.176 311.678 187.022 313.857 185.874C315.51 185.318 316.994 184.033 318.034 184.326C321.319 185.25 321.507 183.08 322.197 181.022C322.353 181.009 322.666 180.99 322.666 180.99L322.974 181.047C328.265 180.764 333.555 180.482 338.269 180.23C331.008 185.869 323.711 191.536 316.169 197.398Z" fill="#F89F1F"/>
<path d="M98.6461 158.028C100.659 162.187 102.314 166.362 104.004 170.932C100.57 173.127 97.1017 174.93 93.3059 176.86C90.9941 173.198 89.0097 169.41 86.959 165.241C90.6912 162.587 94.4896 160.316 98.6461 158.028Z" fill="#2C4551"/>
<path d="M137.732 269.293C138.961 270.662 139.859 272.049 140.887 273.739C140.521 274.287 140.024 274.531 139.128 274.64C138.483 274.662 138.238 274.818 137.992 274.974C137.992 274.974 137.722 275.18 137.209 275.135C136.138 275.413 135.581 275.738 135.023 276.062C135.023 276.062 135.013 275.998 134.691 276.009C133.586 276.36 132.802 276.702 132.019 277.043C120.879 281.22 109.738 285.398 98.5979 289.576C98.3288 288.955 98.0597 288.334 97.7905 287.712C107.641 282.916 117.492 278.119 127.889 273.471C128.896 273.305 129.357 272.99 129.817 272.675C129.817 272.675 129.882 272.752 130.179 272.805C131.009 272.485 131.543 272.111 132.076 271.738C133.851 270.928 135.626 270.119 137.732 269.293Z" fill="#EF3F1C"/>
<path d="M378.901 166.05C383.548 168.713 390.461 166.418 393.766 172.871C394.566 173.567 395.053 174.094 395.779 174.804C389.661 173.606 383.202 172.566 376.978 170.732C372.442 169.396 369.366 171.425 366.073 174.023C359.261 171.653 352.462 168.936 345.453 165.688C347.633 165.443 350.156 165.335 352.39 166.087C360.114 168.686 367.892 169.933 375.926 167.967C377.009 167.702 377.914 166.707 378.901 166.05Z" fill="#EEAB2E"/>
<path d="M239.588 115.124C241.221 116.501 242.349 118.099 243.89 118.91C245.535 119.775 247.57 119.896 249.701 120.591C233.15 119.505 216.339 118.062 199.509 116.898C193.905 116.51 188.253 116.835 182.284 116.713C201.052 116.061 220.159 115.529 239.588 115.124Z" fill="#EEAB2E"/>
<path d="M234.757 258.986C233.956 257.331 233.155 255.675 231.979 253.95C235.214 249.375 238.823 244.869 242.748 240.264C244.216 241.104 245.368 242.044 246.797 243.356C247.135 245.604 247.195 247.481 247.167 249.768C246.58 252.731 246.164 255.305 245.513 257.818C245.386 258.307 244.344 258.559 243.77 258.494C243.608 256.406 243.4 254.742 243.192 253.079C241.46 253.698 239.521 254.015 238.057 255.023C236.694 255.962 235.837 257.635 234.757 258.986Z" fill="#F4581B"/>
<path d="M418.296 196.876C411.795 191.588 404.432 188.997 395.979 187.917C395.963 187.471 396.389 187.057 396.85 186.346C401.957 184.368 406.868 183.974 411.741 186.971C413.331 187.949 415.483 188.011 417.666 188.393C419.648 190.998 422.941 193.575 418.296 196.876Z" fill="#F89F1F"/>
<path d="M420.642 219.823C416.605 219.913 412.955 219.913 410.388 219.913C412.812 218.595 416.511 217.513 418.816 215.1C421.824 211.95 424.89 211.815 429.364 213.546C426.586 215.608 423.807 217.671 420.642 219.823Z" fill="#E2ECEE"/>
<path d="M428.147 206.766C427.233 206.449 426.318 206.132 426.37 206.15C426.945 201.816 427.473 197.842 428.3 193.276C429.691 191.601 430.783 190.517 431.874 189.434C431.874 189.434 431.984 189.487 431.967 189.545C430.292 193.661 433.959 195.096 435.817 198.043C433.269 201.361 430.708 204.063 428.147 206.766Z" fill="#E88B1F"/>
<path d="M191.718 129.852C194.321 129.104 196.924 128.357 199.816 127.381C209.119 126.435 218.133 125.717 227.524 125.067C220.227 126.427 212.553 127.72 204.184 129.069C202.961 129.284 202.432 129.442 201.903 129.6C199.211 130.015 196.519 130.431 193.311 130.604C192.436 130.191 192.077 130.022 191.718 129.852Z" fill="#E2ECEE"/>
<path d="M323.27 180.797C322.973 181.047 322.665 180.99 322.665 180.99C322.665 180.99 322.353 181.009 322.102 180.652C318.361 179.409 314.87 178.523 311.379 177.637C318.399 175.549 325.418 173.461 332.804 171.253C333.169 171.947 333.511 173.195 333.115 173.508C330.012 175.955 326.767 178.223 323.27 180.797Z" fill="#FDBF31"/>
<path d="M352.373 311.374C352.474 310.95 352.505 310.761 352.434 310.627C352.378 310.522 352.196 310.485 352.07 310.417C356.115 317.063 360.161 323.709 364.943 331.564C362.961 330.57 361.772 330.369 361.316 329.681C357.966 324.633 354.708 319.52 351.592 314.324C351.255 313.762 352.01 312.546 352.373 311.374Z" fill="#EA4721"/>
<path d="M366.955 298.65C361.56 299.53 363.276 303.689 363.022 307.226C361.732 299.48 360.417 291.336 359.146 282.816C361.769 287.72 364.347 292.999 366.955 298.65Z" fill="#E88B1F"/>
<path d="M334.701 355.36C338.448 358.066 341.912 360.551 345.376 363.037C336.908 361.806 330.958 356.664 325.05 350.563C328.462 352.23 331.44 353.685 334.701 355.36Z" fill="#EA4721"/>
<path d="M313.435 286.812C319.53 286.797 325.165 286.797 330.799 286.797C330.817 287.102 330.835 287.406 330.854 287.711C321.539 288.269 312.224 288.826 302.909 289.384C302.864 288.879 302.819 288.375 302.773 287.87C306.173 287.523 309.573 287.175 313.435 286.812Z" fill="#EA4721"/>
<path d="M139.615 187.106C140.918 190.28 141.963 193.697 143.005 197.534C140.582 198.791 138.163 199.626 134.469 200.903C136.343 195.706 137.85 191.527 139.615 187.106Z" fill="#2C4551"/>
<path d="M428.473 206.923C430.708 204.063 433.268 201.361 435.989 198.361C436.911 198.413 437.673 198.761 438.971 199.001C439.672 198.927 439.837 198.961 440.002 198.994C437.705 205.827 434.205 208.354 428.473 206.923Z" fill="#E2ECEE"/>
<path d="M431.759 189.175C430.782 190.517 429.691 191.6 428.305 192.832C426.374 189.896 424.738 186.812 422.982 183.394C423.426 183.021 423.989 182.984 424.974 182.907C427.48 184.884 429.562 186.9 431.759 189.175Z" fill="#EEAB2E"/>
<path d="M382.782 196.662C386.119 197.327 389.177 198.146 392.622 198.988C388.575 199.852 384.141 200.694 379.708 201.535C379.493 201.165 379.279 200.795 379.064 200.425C380.211 199.222 381.357 198.019 382.782 196.662Z" fill="#E88B1F"/>
<path d="M189.413 228.042C196.726 223.938 205.132 225.259 213.841 225.066C206.173 226.103 198.01 227.093 189.413 228.042Z" fill="#F1601B"/>
<path d="M150.582 230.92C150.854 236.442 147.072 231.764 144.979 232.909C146.439 232.221 148.322 231.563 150.582 230.92Z" fill="#F1601B"/>
<path d="M186.554 221.014C186.549 221.319 186.092 221.616 185.351 221.943C182.931 221.777 180.795 221.581 178.317 221.204C180.684 221.017 183.393 221.012 186.554 221.014Z" fill="#F66F1A"/>
<path d="M400.676 175.919C399.457 175.915 397.922 175.717 396.197 175.251C397.458 175.23 398.91 175.477 400.676 175.919Z" fill="#EEAB2E"/>
<path d="M285.948 300.492C289.455 299.119 289.455 299.119 289.057 301.844C287.995 301.682 287.057 301.22 285.948 300.492Z" fill="#F4581B"/>
<path d="M67.7752 246.843C68.3764 247.206 68.6717 247.612 69.2113 248.12C68.1585 248.558 66.8613 248.892 65.564 249.226C65.44 248.922 65.3159 248.618 65.1919 248.314C65.951 247.838 66.7101 247.361 67.7752 246.843Z" fill="#EA4721"/>
<path d="M258.135 122.29C259.497 122.474 261.155 122.864 262.891 123.625C262.59 124.014 262.214 124.031 261.555 124.057C260.326 123.542 259.379 123.018 258.135 122.29Z" fill="#EEAB2E"/>
<path d="M251.514 121.1C252.948 121.104 254.706 121.273 256.729 121.706C255.275 121.735 253.557 121.5 251.514 121.1Z" fill="#EEAB2E"/>
<path d="M440.308 198.955C439.837 198.961 439.672 198.927 439.257 198.859C439.724 198.318 440.44 197.811 441.157 197.305C440.976 197.842 440.795 198.379 440.308 198.955Z" fill="#100703"/>
<path d="M223.03 225.28C224.175 225.105 225.656 225.098 227.463 225.234C226.314 225.401 224.84 225.424 223.03 225.28Z" fill="#F1601B"/>
<path d="M72.5571 243.813C72.0276 244.429 71.1648 245.097 69.9619 245.824C70.4892 245.21 71.3565 244.537 72.5571 243.813Z" fill="#EA4721"/>
<path d="M151.368 244.024C152.132 243.661 153.257 243.34 154.757 243.033C153.998 243.386 152.863 243.726 151.368 244.024Z" fill="#F1601B"/>
<path d="M232.438 225.827C233.232 225.625 234.404 225.547 235.783 225.708C234.932 225.949 233.874 225.95 232.438 225.827Z" fill="#F1601B"/>
<path d="M327.407 220.121C327.824 219.487 328.54 218.766 329.576 218.003C329.166 218.652 328.435 219.344 327.407 220.121Z" fill="#F66F1A"/>
<path d="M276.468 247.177C276.64 246.6 277.12 245.928 277.909 245.162C277.738 245.739 277.257 246.411 276.468 247.177Z" fill="#F1601B"/>
<path d="M70.293 248.006C70.6483 247.644 71.2948 247.291 72.2309 246.91C71.8751 247.26 71.2296 247.637 70.293 248.006Z" fill="#EA4721"/>
<path d="M132.349 277.041C132.803 276.702 133.586 276.36 134.714 276.032C134.265 276.377 133.472 276.708 132.349 277.041Z" fill="#EA4721"/>
<path d="M157.362 242.855C157.825 242.554 158.606 242.283 159.714 242.02C159.254 242.313 158.467 242.6 157.362 242.855Z" fill="#F1601B"/>
<path d="M368.203 175.017C368.49 174.743 368.984 174.629 369.478 174.514C369.465 174.908 369.453 175.302 369.228 175.851C368.814 175.729 368.611 175.453 368.203 175.017Z" fill="#EEAB2E"/>
<path d="M129.503 272.693C129.357 272.99 128.896 273.305 128.247 273.44C128.434 273.077 128.811 272.894 129.503 272.693Z" fill="#EA4721"/>
<path d="M135.354 276.066C135.581 275.738 136.139 275.413 137.042 275.104C136.82 275.436 136.252 275.752 135.354 276.066Z" fill="#EA4721"/>
<path d="M439.999 194.389C440.179 194.206 440.356 194.249 440.769 194.43C440.767 194.849 440.53 195.13 440.293 195.411C440.194 195.146 440.094 194.88 439.999 194.389Z" fill="#100703"/>
<path d="M384.809 194.611C384.766 194.923 384.503 195.355 383.981 195.85C384.012 195.518 384.301 195.125 384.809 194.611Z" fill="#E88B1F"/>
<path d="M358.349 195.114C358.492 194.806 358.917 194.437 359.638 194.022C359.5 194.335 359.066 194.695 358.349 195.114Z" fill="#F89F1F"/>
<path d="M104.609 328.04C104.733 328.452 104.604 329.035 104.22 329.791C104.096 329.379 104.226 328.795 104.609 328.04Z" fill="#FC3019"/>
<path d="M143.354 346.059C143.261 345.649 143.403 345.023 143.822 344.214C143.929 344.636 143.759 345.239 143.354 346.059Z" fill="#E81C1F"/>
<path d="M131.744 271.755C131.543 272.111 131.01 272.485 130.13 272.814C130.327 272.437 130.869 272.104 131.744 271.755Z" fill="#EA4721"/>
<path d="M74.3237 246.047C74.5228 245.726 75.0332 245.391 75.8669 245.063C75.6718 245.391 75.1535 245.712 74.3237 246.047Z" fill="#EA4721"/>
<path d="M140.658 233.917C140.402 234.252 139.785 234.574 138.795 234.883C139.048 234.548 139.672 234.227 140.658 233.917Z" fill="#F1601B"/>
<path d="M143.657 232.987C143.399 233.305 142.791 233.604 141.821 233.89C142.075 233.574 142.691 233.272 143.657 232.987Z" fill="#F1601B"/>
<path d="M240.248 225.732C240.216 225.317 240.457 224.811 240.975 224.214C241.009 224.628 240.765 225.135 240.248 225.732Z" fill="#FA7F16"/>
<path d="M73.6418 242.805C73.7111 243.008 73.5261 243.345 73.0612 243.784C72.9834 243.57 73.1854 243.255 73.6418 242.805Z" fill="#EA4721"/>
<path d="M280.949 150.301C281.156 150.078 281.446 150.179 281.837 150.579C281.634 150.83 281.332 150.745 280.949 150.301Z" fill="#F78E1A"/>
<path d="M129.652 237.856C129.683 238.011 129.485 238.225 129.162 238.31C129.038 238.181 129.425 237.914 129.652 237.856Z" fill="#F4581B"/>
<path d="M241.415 224.133C241.286 223.913 241.43 223.598 241.803 223.149C241.918 223.356 241.803 223.697 241.415 224.133Z" fill="#FA7F16"/>
<path d="M360.255 193.913C360.221 193.707 360.453 193.468 360.927 193.152C360.953 193.344 360.737 193.612 360.255 193.913Z" fill="#F89F1F"/>
<path d="M330.199 217.821C330.079 217.598 330.258 217.363 330.709 217.084C330.881 217.325 330.719 217.582 330.199 217.821Z" fill="#F66F1A"/>
<path d="M314.226 213.137C314.083 213.072 314.057 212.854 314.031 212.307C314.135 212.313 314.238 212.649 314.226 213.137Z" fill="#F66F1A"/>
<path d="M325.239 270.129C325.435 269.66 325.739 269.651 326.135 270.111C326.22 270.343 325.782 270.56 325.782 270.56C325.782 270.56 325.341 270.351 325.239 270.129Z" fill="#568AA3"/>
<path d="M138.25 274.986C138.238 274.818 138.484 274.662 138.846 274.629C138.812 274.834 138.66 274.916 138.25 274.986Z" fill="#EA4721"/>
<path d="M220.176 195.513C235.582 192.301 250.988 189.089 266.687 186.299C265.473 189.403 263.968 192.085 261.983 194.832C256.404 194.936 251.302 194.974 245.874 194.787C243.62 194.593 241.56 194.189 239.793 194.736C234.8 196.282 229.928 198.218 224.843 199.681C223.177 198.079 221.677 196.796 220.176 195.513Z" fill="#F89F1F"/>
<path d="M219.971 195.486C221.677 196.796 223.177 198.079 224.679 199.924C221.732 202.982 218.784 205.479 215.593 207.747C210.754 201.954 209.846 201.803 205.953 205.585C203.864 201.484 201.017 203.258 197.939 204.082C196.717 203.037 195.852 202.052 194.987 201.066C201.545 199.617 208.104 198.167 215.461 196.821C217.189 196.573 218.118 196.221 219.048 195.87C219.239 195.648 219.478 195.511 219.971 195.486Z" fill="#F78E1A"/>
<path d="M284.629 186.897C285.203 185.659 285.776 184.421 286.366 182.893C289.8 181.961 293.218 181.319 297.456 180.824C301.852 180.648 305.427 180.326 309.001 180.002C309 180 308.996 179.996 308.996 180.257C308.996 180.692 308.996 180.866 308.679 181.202C304.51 184.253 300.657 187.142 296.512 189.862C293.164 185.408 288.694 186.995 284.629 186.897Z" fill="#EEAB2E"/>
<path d="M194.605 201.167C195.852 202.052 196.717 203.037 197.823 204.354C197.446 205.671 196.829 206.656 196.212 207.641C193.531 211.789 189.543 210.207 185.423 209.692C184.6 208.946 184.22 208.508 183.584 208.015C182.887 207.682 182.446 207.404 182.005 206.758C182.006 205.652 182.006 204.914 182.006 204.177C186.079 203.207 190.151 202.237 194.605 201.167Z" fill="#FA7F16"/>
<path d="M181.621 204.148C182.006 204.914 182.006 205.652 181.649 206.817C177.234 209.831 173.176 212.416 169.118 215.002C168.78 213.421 168.443 211.84 168.105 210.259C168.608 210.057 169.111 209.855 169.614 209.653C168.904 209.323 168.194 208.992 167.247 208.451C171.752 206.867 176.494 205.493 181.621 204.148Z" fill="#E88B1F"/>
<path d="M311.29 177.624C314.87 178.523 318.361 179.409 321.946 180.665C321.507 183.08 321.319 185.25 318.034 184.326C316.994 184.033 315.51 185.318 313.984 185.529C312.836 183.812 311.933 182.446 310.86 180.826C310.126 180.379 309.561 180.188 308.996 179.996C308.996 179.996 309 180 309.179 179.749C309.937 178.918 310.516 178.339 311.095 177.76C311.095 177.76 311.2 177.612 311.29 177.624Z" fill="#EEAB2E"/>
<path d="M310.658 177.767C310.516 178.339 309.937 178.918 309.18 179.75C305.427 180.326 301.852 180.648 297.86 180.905C301.703 179.817 305.962 178.796 310.658 177.767Z" fill="#FDBF31"/>
<path d="M164.585 208.908C162.831 209.603 160.688 210.279 158.091 210.91C159.824 210.206 162.01 209.548 164.585 208.908Z" fill="#E88B1F"/>
<path d="M218.665 195.85C218.118 196.221 217.189 196.573 215.854 196.886C216.394 196.509 217.339 196.17 218.665 195.85Z" fill="#F89F1F"/>
<path d="M284.269 182.376C284.258 182.492 284.099 182.72 284.099 182.72C284.099 182.72 283.761 182.68 283.769 182.563C283.777 182.447 283.94 182.213 283.94 182.213C283.94 182.213 284.279 182.26 284.269 182.376Z" fill="#EEAB2E"/>
<path d="M267.067 221.035C267.366 220.483 267.843 220.185 268.612 219.831C268.351 220.279 267.798 220.784 267.067 221.035Z" fill="#FA7F16"/>
<path d="M202.059 129.971C202.432 129.442 202.961 129.284 203.771 129.173C206.432 129.816 208.813 130.411 211.584 131.007C209.821 133.309 206.36 133.073 202.059 129.971Z" fill="#EEAB2E"/>
<path d="M219.898 132.606C218.046 132.565 216.114 132.156 214.104 131.377C215.957 131.418 217.888 131.828 219.898 132.606Z" fill="#EEAB2E"/>
<path d="M256.922 143.633C245.873 144.001 234.76 143.916 223.649 144.053C219.37 144.105 215.08 145.07 210.825 144.897C204.375 144.635 197.961 143.578 191.511 143.171C186.63 142.863 181.718 143.043 176.264 142.693C175.391 141.776 175.074 141.173 174.757 140.57C174.757 140.57 175.101 140.433 175.559 140.568C176.296 140.385 176.575 140.067 176.855 139.748C176.855 139.748 176.777 139.852 177.105 139.846C179.615 138.556 181.796 137.273 183.978 135.989C187.704 136.004 191.432 135.935 195.155 136.051C205.727 136.379 216.327 136.412 226.858 137.275C235.362 137.972 243.796 139.627 252.228 141.052C253.85 141.326 255.319 142.506 256.922 143.633Z" fill="#FC971A"/>
<path d="M183.98 135.596C181.796 137.273 179.615 138.556 177.067 139.793C176.969 137.971 177.237 136.195 177.547 134.146C179.286 133.7 181.184 133.213 183.449 132.784C183.872 133.629 183.927 134.415 183.98 135.596Z" fill="#EEAB2E"/>
<path d="M191.388 129.906C192.077 130.022 192.436 130.191 192.911 130.638C191.492 131.256 189.957 131.597 187.994 131.885C188.731 131.209 189.894 130.585 191.388 129.906Z" fill="#EEAB2E"/>
<path d="M184.131 132.86C183.929 132.491 184.126 132.274 184.74 132.264C184.845 132.578 184.634 132.758 184.131 132.86Z" fill="#EEAB2E"/>
<path d="M205.966 205.957C209.845 201.803 210.754 201.954 215.739 207.873C216.129 208.226 216.184 208.607 216.134 208.953C216.064 209.53 216.043 209.762 216.022 209.994C215.056 211.596 214.091 213.197 212.643 215.15C210.397 216.334 208.633 217.167 206.869 218.001C206.013 217.153 205.101 216.355 204.314 215.448C202.66 213.541 201.073 211.576 199.564 209.312C200.577 208.958 201.485 208.926 202.706 208.84C203.333 208.517 203.646 208.249 203.972 207.981C203.986 207.982 203.991 207.956 204.311 207.922C205.074 207.25 205.517 206.612 205.974 205.981C205.987 205.987 205.966 205.957 205.966 205.957Z" fill="#FA7F16"/>
<path d="M236.823 208.95C236.209 210.408 235.594 211.865 234.913 213.668C228.859 212.674 222.871 211.336 216.453 209.996C216.043 209.762 216.064 209.53 216.536 208.985C221.98 207.553 226.974 206.435 232.207 205.514C233.905 206.791 235.364 207.87 236.823 208.95Z" fill="#F66F1A"/>
<path d="M235.114 215.133C236.764 214.852 238.443 214.943 240.545 215.015C240.974 215.165 240.98 215.334 240.986 215.757C239.038 215.842 237.091 215.674 235.114 215.133Z" fill="#F66F1A"/>
<path d="M184.205 210.89C183.972 210.258 183.977 209.526 183.912 208.432C184.221 208.508 184.6 208.946 185.035 209.687C184.875 210.257 184.659 210.524 184.205 210.89Z" fill="#E88B1F"/>
<path d="M181.312 213.945C181.504 213.426 182.007 212.877 182.773 212.221C182.564 212.715 182.093 213.316 181.312 213.945Z" fill="#E88B1F"/>
<path d="M177.24 215.935C177.429 215.627 177.924 215.319 178.719 214.999C178.528 215.303 178.038 215.619 177.24 215.935Z" fill="#F66F1A"/>
<path d="M179.746 214.813C179.745 214.592 180.053 214.332 180.667 214.032C180.668 214.252 180.361 214.513 179.746 214.813Z" fill="#E88B1F"/>
<path d="M260.011 119.729C260.059 119.728 259.962 119.729 260.011 119.729Z" fill="#EEAB2E"/>
<path d="M237.043 208.664C235.364 207.87 233.905 206.791 232.53 205.33C237.143 201.636 241.672 198.324 246.201 195.011C251.303 194.974 256.404 194.936 261.984 194.832C265.093 194.283 267.724 193.8 270.982 193.523C274.033 195.487 276.457 197.243 278.79 199.286C278.13 200.386 277.562 201.2 276.746 202.187C276.35 202.932 276.203 203.504 276.056 204.077C272.349 205.294 271.426 208.734 269.931 212.136C269.045 210.184 268.173 207.826 267.067 204.836C265.519 206.621 264.176 208.17 262.576 209.919C261.562 209.416 260.204 208.755 260.151 208.003C259.849 203.721 256.994 203.123 252.963 203.142C252.181 203.506 252.069 203.775 251.957 204.044C251.957 204.044 252.017 204.035 252.042 204.017C247.132 205.459 242.196 206.918 237.043 208.664Z" fill="#F78E1A"/>
<path d="M294.625 203.183C294.986 206.374 295.042 209.746 295.1 213.582C294.404 212.284 293.706 210.521 293.008 208.378C293.445 206.453 293.882 204.908 294.625 203.183Z" fill="#E88B1F"/>
<path d="M286.308 207.965C286.417 206.76 286.908 205.571 287.632 204.158C288.24 205.035 288.613 206.135 288.981 207.608C288.214 207.981 287.452 207.981 286.308 207.965Z" fill="#E88B1F"/>
<path d="M280.066 212.595C280.451 212.241 280.893 212.156 281.673 212.062C281.381 212.323 280.752 212.593 280.066 212.595Z" fill="#E88B1F"/>
<path d="M284.477 209.998C284.592 209.44 285.016 208.818 285.694 208.062C285.56 208.597 285.173 209.265 284.477 209.998Z" fill="#E88B1F"/>
<path d="M276.745 202.186C276.957 202.479 276.921 202.945 276.748 203.736C276.611 204.061 276.332 204.06 276.194 204.068C276.203 203.504 276.35 202.932 276.745 202.186Z" fill="#E88B1F"/>
<path d="M295.174 214.727C295.395 214.734 295.647 215.047 295.919 215.668C295.694 215.662 295.449 215.348 295.174 214.727Z" fill="#E88B1F"/>
<path d="M296.199 216.816C296.426 216.79 296.704 217.069 297.054 217.638C296.834 217.66 296.541 217.39 296.199 216.816Z" fill="#E88B1F"/>
<path d="M278.126 211.259C278.361 211.105 278.618 211.276 278.902 211.772C278.676 211.915 278.416 211.745 278.126 211.259Z" fill="#E88B1F"/>
<path d="M276.642 208.127C276.845 208.169 276.916 208.327 276.973 208.745C276.809 208.751 276.659 208.497 276.642 208.127Z" fill="#E88B1F"/>
<path d="M282.284 211.928C282.186 211.723 282.366 211.494 282.833 211.256C282.924 211.461 282.739 211.681 282.284 211.928Z" fill="#E88B1F"/>
<path d="M277.177 209.864C277.386 209.855 277.635 210.13 277.929 210.685C277.722 210.692 277.469 210.42 277.177 209.864Z" fill="#E88B1F"/>
<path d="M283.355 210.942C283.182 210.715 283.329 210.468 283.826 210.243C283.936 210.451 283.769 210.67 283.355 210.942Z" fill="#E88B1F"/>
<path d="M174.402 140.547C175.074 141.173 175.391 141.776 175.843 142.685C175.174 143 174.37 143.009 173.161 143.035C173.186 142.21 173.616 141.367 174.402 140.547Z" fill="#EEAB2E"/>
<path d="M176.529 139.771C176.575 140.067 176.295 140.385 175.679 140.709C175.629 140.407 175.917 140.1 176.529 139.771Z" fill="#EEAB2E"/>
<path d="M247.166 249.768C247.255 249.357 247.681 249.469 247.821 249.639C249.746 252.041 251.532 254.275 253.537 257.093C252.901 259.883 253.383 261.259 256.004 261.312C257.244 261.767 258.484 262.223 259.825 263.275C257.781 267.982 258.029 268.621 263.08 272.004C264.863 273.802 266.592 275.657 268.441 277.383C270.599 279.398 268.831 280.05 266.76 280.928C265.388 280.476 264.611 279.952 263.834 279.428C261.116 277.062 258.398 274.697 255.158 271.911C252.841 268.752 250.723 266.719 247.075 268.041C245.085 268.06 243.857 267.711 244.743 265.151C245.437 263.147 244.736 261.794 242 262.491C242.427 261.134 243.076 260.027 243.724 258.92C244.344 258.559 245.386 258.307 245.513 257.818C246.164 255.305 246.58 252.731 247.166 249.768Z" fill="#F44B1A"/>
<path d="M287.036 197.755C284.28 195.675 281.922 197.185 279.223 198.854C276.457 197.243 274.033 195.487 271.357 193.531C275.418 191.277 279.728 189.223 284.334 187.033C288.693 186.995 293.164 185.408 296.574 190.128C297.297 190.96 297.663 191.356 298.029 191.752C297.74 193.911 298.415 196.452 294.247 194.907C292.427 194.232 289.529 196.47 287.036 197.755Z" fill="#F89F1F"/>
<path d="M288.309 202.771C288.011 201.951 287.959 200.899 287.852 199.456C288.05 200.223 288.303 201.381 288.309 202.771Z" fill="#E88B1F"/>
<path d="M304.931 190.905C305.177 190.616 305.767 190.333 306.692 190.049C306.442 190.336 305.858 190.623 304.931 190.905Z" fill="#F89F1F"/>
<path d="M241.342 214.984C241.812 214.447 242.613 213.92 243.703 213.339C243.218 213.854 242.446 214.424 241.342 214.984Z" fill="#F66F1A"/>
<path d="M252.218 204.047C252.069 203.775 252.181 203.506 252.554 203.167C252.703 203.415 252.591 203.732 252.218 204.047Z" fill="#100703"/>
<path d="M310.86 180.826C310.575 181.115 310.122 181.149 309.332 181.112C308.996 180.866 308.996 180.692 308.996 180.257C309.561 180.188 310.126 180.379 310.86 180.826Z" fill="#FDBF31"/>
<path d="M204.311 207.922C204.476 207.379 204.961 206.802 205.703 206.1C205.517 206.612 205.074 207.25 204.311 207.922Z" fill="#F78E1A"/>
<path d="M202.706 208.84C202.703 208.62 203.014 208.346 203.642 208.026C203.646 208.249 203.333 208.517 202.706 208.84Z" fill="#F78E1A"/>
</svg>
