<svg width="609" height="788" viewBox="0 0 609 788" fill="none" xmlns="http://www.w3.org/2000/svg">
<g clip-path="url(#clip0_494_3)">
<path d="M608.657 508.037L499.764 428.747C499.764 428.747 437.389 323.026 426.817 255.364C416.245 187.703 368.67 67.1811 368.67 67.1811V3.74855C368.67 3.74855 313.696 -17.3956 309.467 40.7509C305.238 98.8974 321.096 173.959 321.096 173.959C321.096 173.959 336.954 269.108 301.009 293.424L169.915 508.037C169.915 508.037 295.723 623.273 394.043 638.074L608.657 787.141V508.037Z" fill="#FFB8B8"/>
<path d="M42.5214 204.09H38.9319C6.59077 204.09 -11.5886 242.272 9.66232 266.651C16.5021 274.497 26.8982 279.93 42.5214 280.209V204.09Z" fill="#FFB8B8"/>
<path d="M42.5214 280.209H38.9319C6.59077 280.209 -11.5886 318.391 9.66232 342.77C16.5021 350.616 26.8982 356.049 42.5214 356.328V280.209Z" fill="#FFB8B8"/>
<path d="M42.5214 356.328H38.9319C6.59077 356.328 -11.5886 394.51 9.66232 418.889C16.5021 426.736 26.8982 432.168 42.5214 432.447V356.328Z" fill="#FFB8B8"/>
<path d="M42.5214 432.447H38.9319C6.59077 432.447 -11.5886 470.629 9.66232 495.008C16.5021 502.855 26.8982 508.287 42.5214 508.566V432.447Z" fill="#FFB8B8"/>
<path d="M323.21 185.915H320.064V99.7223C320.064 93.1712 318.774 86.6842 316.267 80.6317C313.76 74.5793 310.085 69.0799 305.453 64.4475C300.82 59.8152 295.321 56.1406 289.269 53.6336C283.216 51.1266 276.729 49.8363 270.178 49.8363H87.5673C81.0161 49.8363 74.5291 51.1266 68.4767 53.6336C62.4242 56.1406 56.9248 59.8152 52.2924 64.4475C47.6601 69.0799 43.9855 74.5793 41.4785 80.6317C38.9715 86.6842 37.6812 93.1712 37.6812 99.7223V572.582C37.6812 579.133 38.9715 585.62 41.4785 591.673C43.9855 597.725 47.6601 603.224 52.2924 607.857C56.9248 612.489 62.4242 616.164 68.4767 618.671C74.5291 621.178 81.0161 622.468 87.5673 622.468H270.178C276.729 622.468 283.216 621.178 289.269 618.671C295.321 616.164 300.82 612.489 305.453 607.857C310.085 603.224 313.76 597.725 316.267 591.673C318.774 585.62 320.064 579.133 320.064 572.582V247.268H323.21V185.915Z" fill="#3F3D56"/>
<path d="M309.445 100.071V572.231C309.437 577.753 308.206 583.205 305.841 588.196C303.476 593.186 300.035 597.59 295.765 601.093C294.821 601.867 293.836 602.59 292.816 603.26C286.708 607.331 279.53 609.498 272.189 609.487H88.7003C85.7258 609.492 82.7617 609.137 79.8726 608.43C71.7641 606.452 64.5545 601.81 59.3996 595.246C54.2447 588.682 51.4432 580.577 51.4442 572.231V100.071C51.4451 90.1902 55.3706 80.7145 62.3572 73.7279C69.3439 66.7412 78.8196 62.8157 88.7002 62.8148H110.965C109.869 65.502 109.45 68.4176 109.746 71.3046C110.043 74.1916 111.044 76.9615 112.663 79.3702C114.282 81.7788 116.469 83.7523 119.03 85.1166C121.592 86.481 124.45 87.1945 127.352 87.1941H231.963C234.864 87.1909 237.72 86.4754 240.28 85.1103C242.84 83.7452 245.025 81.7723 246.644 79.365C248.264 76.9576 249.267 74.1895 249.566 71.3038C249.865 68.4181 249.451 65.5031 248.36 62.8148H272.189C282.07 62.8157 291.546 66.7412 298.532 73.7278C305.519 80.7145 309.445 90.1902 309.445 100.071Z" fill="#307A59"/>
<path d="M296 124H59V321H296V124Z" fill="#E6E6E6"/>
<path d="M191.119 136.549H171.679C170.996 136.549 170.34 136.82 169.857 137.303C169.373 137.787 169.102 138.442 169.102 139.126V147.659C169.102 148.342 169.373 148.998 169.857 149.481C170.34 149.965 170.996 150.236 171.679 150.236H174.901V163.021H187.898V150.236H191.119C191.803 150.236 192.459 149.965 192.942 149.481C193.425 148.998 193.697 148.342 193.697 147.659V139.126C193.697 138.442 193.425 137.787 192.942 137.303C192.459 136.82 191.803 136.549 191.119 136.549Z" fill="#307A59"/>
<path d="M210.591 214.642C198.685 197.22 192.599 176.478 193.203 155.385C193.214 154.899 193.056 154.423 192.756 154.04C192.457 153.656 192.033 153.388 191.558 153.282V149.595H171.027V153.231H170.744C170.467 153.231 170.193 153.286 169.938 153.392C169.682 153.498 169.45 153.654 169.255 153.849C169.06 154.045 168.905 154.278 168.799 154.534C168.694 154.789 168.639 155.063 168.64 155.34C168.64 155.391 168.642 155.442 168.646 155.493C170.263 178.041 164.801 198.261 152.26 216.154C151.538 217.182 151.17 218.417 151.209 219.672L153.454 289.117C153.508 290.666 154.158 292.134 155.269 293.215C156.379 294.296 157.865 294.907 159.414 294.919H205.853C207.421 294.906 208.921 294.282 210.035 293.179C211.149 292.076 211.789 290.582 211.817 289.014L212.682 221.589C212.708 219.115 211.978 216.691 210.591 214.642Z" fill="#3F3D56"/>
<path opacity="0.2" d="M187.067 139.329C187.067 140.804 186.481 142.218 185.438 143.261C184.395 144.304 182.981 144.889 181.506 144.889C180.032 144.889 178.617 144.304 177.574 143.261C176.532 142.218 175.946 140.804 175.946 139.329" fill="black"/>
<path d="M203.24 237.709H197.616C197.079 234.225 195.313 231.048 192.638 228.754C189.962 226.459 186.554 225.197 183.029 225.197C179.504 225.197 176.096 226.459 173.42 228.754C170.745 231.048 168.979 234.225 168.442 237.709H162.818C162.22 237.709 161.628 237.838 161.085 238.088C160.541 238.338 160.058 238.702 159.668 239.157C159.279 239.611 158.992 240.144 158.828 240.719C158.663 241.294 158.625 241.898 158.716 242.49L164.824 282.194H199.899L207.318 242.624C207.431 242.024 207.41 241.407 207.257 240.817C207.104 240.227 206.822 239.678 206.433 239.208C206.044 238.739 205.555 238.362 205.004 238.102C204.452 237.843 203.849 237.709 203.24 237.709Z" fill="#307A59"/>
<path d="M289 366H62V564H289V366Z" fill="#E6E6E6"/>
<path d="M220.123 506.841L220.249 506.841C224.517 506.878 228.697 505.598 232.243 503.168C235.79 500.739 238.538 497.273 240.129 493.222C245.144 480.254 246.318 466.064 243.505 452.418C240.693 438.773 234.018 426.275 224.311 416.481C214.605 406.687 202.296 400.029 188.917 397.337C175.538 394.645 161.68 396.037 149.07 401.341C136.459 406.644 125.652 415.624 117.994 427.162C110.337 438.701 106.167 452.288 106.005 466.233C105.842 480.177 109.694 493.862 117.08 505.584C124.467 517.306 135.061 526.547 147.545 532.157C151.425 533.914 155.733 534.43 159.905 533.639C164.078 532.848 167.918 530.786 170.925 527.723C177.372 521.094 185.039 515.836 193.483 512.252C201.927 508.668 210.981 506.829 220.123 506.841Z" fill="white"/>
<path d="M184 485C196.703 485 207 474.479 207 461.5C207 448.521 196.703 438 184 438C171.297 438 161 448.521 161 461.5C161 474.479 171.297 485 184 485Z" fill="#F9A825"/>
<path d="M375.542 597.9C419.625 597.9 455.362 517.908 455.362 419.232C455.362 320.556 419.625 240.563 375.542 240.563C331.459 240.563 295.723 320.556 295.723 419.232C295.723 517.908 331.459 597.9 375.542 597.9Z" fill="#FFB8B8"/>
</g>
<defs>
<clipPath id="clip0_494_3">
<rect width="608.157" height="787.141" fill="white" transform="translate(0.5)"/>
</clipPath>
</defs>
</svg>
