<svg width="36" height="33" viewBox="0 0 36 33" fill="none" xmlns="http://www.w3.org/2000/svg">
<g clip-path="url(#clip0_333_659)">
<path d="M0.45752 5.49128C0.503426 5.43176 0.576807 5.41046 0.591174 5.37097C0.864578 4.61966 1.80057 4.11956 2.58385 4.12041C12.9278 4.13165 23.2718 4.13329 33.6157 4.11725C34.4094 4.11602 35.4317 4.6165 35.6702 5.41528C35.6805 5.45003 35.7295 5.47503 35.7789 5.48305C35.7973 5.9074 35.7973 6.35327 35.7973 6.8289C35.7516 6.88711 35.6779 6.90708 35.6642 6.94524C35.3927 7.70375 34.4424 8.20216 33.6408 8.20113C23.2967 8.18777 12.9525 8.18758 2.6084 8.20183C1.83677 8.20289 0.822766 7.69899 0.586037 6.90819C0.575612 6.87336 0.52754 6.84808 0.477262 6.83851C0.45752 6.41279 0.45752 5.96692 0.45752 5.49128Z" fill="#666262"/>
<path d="M35.7973 16.9899C35.7516 17.0481 35.6779 17.0681 35.6642 17.1063C35.3926 17.8647 34.4425 18.3632 33.6405 18.3621C23.3068 18.3488 12.9731 18.3479 2.63947 18.364C1.84539 18.3652 0.823134 17.8647 0.584697 17.0659C0.574323 17.0312 0.525399 17.0062 0.475976 16.9982C0.457519 16.5738 0.457519 16.1279 0.45752 15.6523C0.503427 15.5928 0.576806 15.5715 0.591174 15.532C0.864578 14.7807 1.80057 14.2806 2.58384 14.2814C12.9278 14.2927 23.2718 14.2943 33.6157 14.2783C34.4094 14.277 35.4317 14.7775 35.6702 15.5763C35.6805 15.611 35.7294 15.636 35.7789 15.6441C35.7973 16.0684 35.7973 16.5143 35.7973 16.9899Z" fill="#666262"/>
<path d="M35.7973 27.1509C35.7516 27.2091 35.6779 27.229 35.6642 27.2672C35.3926 28.0257 34.4425 28.5241 33.6405 28.5231C23.3068 28.5097 12.9731 28.5088 2.63947 28.5249C1.84538 28.5261 0.823134 28.0256 0.584697 27.2269C0.574324 27.1921 0.5254 27.1671 0.475977 27.1591C0.45752 26.7347 0.45752 26.2889 0.45752 25.8132C0.503426 25.7537 0.576806 25.7324 0.591174 25.6929C0.864577 24.9416 1.80057 24.4415 2.58384 24.4424C12.9278 24.4536 23.2718 24.4553 33.6157 24.4392C34.4095 24.438 35.4317 24.9385 35.6702 25.7372C35.6805 25.772 35.7294 25.797 35.7789 25.805C35.7973 26.2294 35.7973 26.6752 35.7973 27.1509Z" fill="#666262"/>
</g>
<defs>
<clipPath id="clip0_333_659">
<rect width="35.3398" height="32.5152" fill="white" transform="translate(0.388672)"/>
</clipPath>
</defs>
</svg>
