<svg width="38" height="37" viewBox="0 0 38 37" fill="none" xmlns="http://www.w3.org/2000/svg">
<g clip-path="url(#clip0_500_1730)">
<path d="M4.32717 0.105766C4.0034 0.211541 3.65755 0.50771 3.49566 0.80388C3.42943 0.923759 2.74509 3.15208 1.96508 5.76119L0.552246 10.507H5.2102H9.86814L9.94173 10.1332C9.98588 9.93577 10.4789 7.56642 11.0455 4.87974L12.061 -8.58307e-06H8.33757C5.37208 0.00704288 4.55529 0.0281982 4.32717 0.105766Z" fill="#666262"/>
<path d="M14.1876 5.1618C13.5989 8.00362 13.1133 10.373 13.1133 10.4153C13.1133 10.4858 14.3422 10.507 19.0001 10.507C23.6581 10.507 24.8869 10.4858 24.8869 10.4153C24.8869 10.373 24.4013 8.00362 23.8126 5.1618L22.7309 -8.58307e-06H19.0001H15.2693L14.1876 5.1618Z" fill="#666262"/>
<path d="M26.9544 4.87974C27.521 7.56642 28.0141 9.93577 28.0582 10.1332L28.1318 10.507H32.7898H37.4477L36.0349 5.76119C35.2549 3.15208 34.5632 0.916706 34.5043 0.796828C34.3424 0.493608 33.9156 0.162179 33.5918 0.0775595C33.4152 0.0281982 31.973 -8.58307e-06 29.6256 -8.58307e-06H25.939L26.9544 4.87974Z" fill="#666262"/>
<path d="M0.176895 13.1302C0.206329 14.0399 0.235763 14.2726 0.375575 14.6181C0.691992 15.4008 1.42785 16.0778 2.27408 16.381C2.6788 16.522 2.84068 16.5361 5.34258 16.5573C8.79373 16.5855 9.24996 16.5079 10.1036 15.7464C10.6039 15.3021 10.8247 14.9566 11.0234 14.3219L11.1779 13.8072L11.222 14.0963C11.2809 14.5617 11.6709 15.2668 12.083 15.6547C12.5098 16.0707 13.1941 16.4022 13.8196 16.5009C14.3936 16.5926 23.6065 16.5926 24.1804 16.5009C24.8059 16.4022 25.4902 16.0707 25.917 15.6547C26.3291 15.2668 26.7191 14.5617 26.778 14.0963L26.8221 13.8072L26.9767 14.3219C27.1753 14.9566 27.3961 15.3021 27.8965 15.7464C28.7501 16.5079 29.2063 16.5855 32.6575 16.5573C35.1594 16.5361 35.3212 16.522 35.726 16.381C36.5722 16.0778 37.308 15.4008 37.6245 14.6181C37.7643 14.2726 37.7937 14.0399 37.8231 13.1302L37.8526 12.0583H19H0.147461L0.176895 13.1302Z" fill="#666262"/>
<path d="M10.9792 17.0298C10.8099 17.2272 10.0593 17.615 9.47066 17.8195L8.88198 18.017L5.90913 18.0381C3.43667 18.0593 2.84063 18.0452 2.36968 17.9535C2.06062 17.8901 1.781 17.8407 1.75156 17.8407C1.72949 17.8407 1.71477 21.705 1.72213 26.4296L1.7442 35.0256L1.96496 35.3641C2.12685 35.6179 2.29609 35.766 2.58308 35.907L2.97308 36.1045H4.69497H6.41687L6.43159 29.1375L6.45366 22.1775L6.61555 21.8954C6.81423 21.5428 7.04235 21.3313 7.3882 21.1902C7.80027 21.0281 16.0713 21.0281 16.4833 21.1902C16.8292 21.3313 17.0573 21.5428 17.256 21.8954L17.4179 22.1775L17.4399 29.1375L17.4547 36.1045H26.2407H35.0268L35.4168 35.907C35.7038 35.766 35.8731 35.6179 36.035 35.3641L36.2557 35.0256L36.2778 26.4296C36.2851 21.705 36.2704 17.8407 36.2483 17.8407C36.2189 17.8407 35.9393 17.8901 35.6302 17.9535C35.1593 18.0452 34.5632 18.0593 32.0908 18.0381L29.1179 18.017L28.5292 17.8195C27.9406 17.615 27.19 17.2272 27.0208 17.0298C26.8957 16.8817 26.8589 16.8958 26.5351 17.1426C26.1157 17.4599 25.2841 17.8195 24.6734 17.9465C23.8934 18.1016 14.1213 18.1016 13.3412 17.9465C12.7084 17.8195 11.9873 17.5163 11.5237 17.1778C11.1337 16.8887 11.1043 16.8817 10.9792 17.0298ZM30.6117 21.1902C30.9576 21.3313 31.1857 21.5428 31.3844 21.8954C31.5389 22.1704 31.5462 22.248 31.5462 24.8218V27.4662L31.3623 27.7835C31.2593 27.9528 31.0311 28.1925 30.8619 28.3124L30.5381 28.524L26.226 28.5451C23.29 28.5592 21.8183 28.5451 21.6343 28.4887C21.2737 28.39 20.9426 28.115 20.7439 27.7553C20.582 27.4733 20.582 27.4169 20.582 24.8218C20.582 22.248 20.5894 22.1704 20.7439 21.8954C20.9352 21.5499 21.1634 21.3383 21.5019 21.1973C21.8919 21.0351 30.207 21.0351 30.6117 21.1902Z" fill="#666262"/>
</g>
<defs>
<clipPath id="clip0_500_1730">
<rect width="37.6757" height="36.1045" fill="white" transform="translate(0.162109)"/>
</clipPath>
</defs>
</svg>
