<svg width="54" height="43" viewBox="0 0 54 43" fill="none" xmlns="http://www.w3.org/2000/svg">
<g clip-path="url(#clip0_332_137)">
<path d="M34.0357 25.5492C35.1816 26.3802 36.1784 27.2574 36.8555 28.3586C37.4372 29.3047 37.9288 30.2753 37.9537 31.325C38.0295 34.5241 38.0368 37.7242 38.0698 40.924C38.0701 40.951 38.0577 40.978 38.0437 41.0367C30.7683 41.0367 23.4855 41.0367 16.1367 41.0367C16.1367 40.8913 16.1367 40.7428 16.1367 40.5943C16.1367 37.7668 16.0827 34.9385 16.1543 32.1122C16.2082 29.9855 17.146 28.102 18.964 26.5022C20.4052 25.234 22.1368 24.3667 24.2021 23.9294C25.5115 23.6522 26.8308 23.5364 28.2057 23.6604C29.4931 23.7765 30.7146 24.0327 31.8674 24.4607C32.6247 24.7419 33.2974 25.1675 34.0357 25.5492Z" fill="#666262"/>
<path d="M44.7906 16.8212C45.9643 17.1616 46.9472 17.6983 47.838 18.3264C49.622 19.5843 50.8061 21.1425 51.3034 23.0087C51.432 23.4911 51.5585 23.9858 51.5623 24.4754C51.5855 27.4555 51.5731 30.4357 51.5714 33.4159C51.5714 33.4563 51.5569 33.4966 51.5438 33.565C47.391 33.565 43.2384 33.565 39.0428 33.565C39.2141 28.4602 36.416 24.9343 30.2605 23.1591C30.4787 23.0657 30.6914 22.9641 30.9149 22.8807C32.6414 22.2366 33.9348 21.2194 34.8412 19.9027C35.4057 19.0826 35.7001 18.1794 35.87 17.2512C35.8938 17.1211 36.0271 16.9468 36.1684 16.8957C37.9674 16.2448 39.882 16.0832 41.8145 16.2308C42.8088 16.3067 43.7763 16.6051 44.7906 16.8212Z" fill="#666262"/>
<path d="M11.8145 16.2928C14.0168 16.0522 16.1174 16.204 18.1036 16.9355C18.318 17.0145 18.3944 17.4123 18.4479 17.6735C18.7061 18.9348 19.353 20.0444 20.3514 21.0438C21.2592 21.9525 22.4195 22.5708 23.7206 23.0499C23.7957 23.0776 23.8634 23.1182 23.9462 23.1584C17.8097 24.9123 15.0079 28.4373 15.1708 33.5674C10.9983 33.5674 6.84585 33.5674 2.63664 33.5674C2.63664 33.4082 2.63664 33.2587 2.63664 33.1092C2.63664 30.423 2.6429 27.7368 2.63456 25.0507C2.62844 23.0786 3.30253 21.2678 4.78351 19.6932C6.39037 17.9847 8.51915 16.8557 11.1583 16.3785C11.359 16.3422 11.564 16.3211 11.8145 16.2928Z" fill="#666262"/>
<path d="M34.6735 14.9052C34.7644 15.6522 34.9024 16.3676 34.8958 17.0822C34.884 18.379 34.2193 19.5026 33.2433 20.5159C31.9575 21.8509 30.2007 22.5989 28.1608 22.8166C26.0113 23.0461 23.9992 22.6248 22.2562 21.5431C20.8592 20.6761 19.9413 19.5471 19.5186 18.1856C19.0649 16.724 19.1833 15.2771 20.0212 13.9141C21.1515 12.0753 23.0025 10.9156 25.522 10.51C27.2028 10.2394 28.8823 10.3597 30.4469 10.9536C31.8956 11.5036 33.0888 12.3114 33.8537 13.4595C34.1574 13.9154 34.3903 14.4011 34.6735 14.9052Z" fill="#666262"/>
<path d="M21.4101 9.8056C21.2677 10.8577 20.7443 11.7185 20.0465 12.584C18.9364 13.9608 17.4832 14.8606 15.514 15.2344C13.0759 15.6971 10.8382 15.3358 8.82476 14.1265C7.10632 13.0943 6.07578 11.7059 5.83286 10.036C5.55993 8.15987 6.12137 6.43281 7.79972 4.98825C9.55448 3.47793 11.7206 2.8087 14.25 2.95431C16.2347 3.06856 17.9277 3.73468 19.3225 4.9108C20.4851 5.89113 21.1186 7.04651 21.3898 8.34079C21.4869 8.80385 21.4085 9.29024 21.4101 9.8056Z" fill="#666262"/>
<path d="M32.9322 10.5416C32.8762 9.99665 32.8047 9.48493 32.8064 8.97336C32.8159 6.16471 35.3139 3.81284 38.5831 3.1334C41.0544 2.61978 43.4118 2.98059 45.4377 4.24876C46.9709 5.20855 47.9912 6.47013 48.3042 8.04041C48.7548 10.3016 47.9962 12.2553 45.8667 13.8127C44.6045 14.7358 43.0999 15.2464 41.3611 15.3828C39.1737 15.5545 37.2612 15.0697 35.5983 13.9873C35.0535 13.6326 34.7247 13.074 34.2603 12.6332C33.6195 12.0251 33.1424 11.3598 32.9322 10.5416Z" fill="#666262"/>
</g>
<defs>
<clipPath id="clip0_332_137">
<rect width="54" height="43" fill="white"/>
</clipPath>
</defs>
</svg>
