<svg width="20" height="28" viewBox="0 0 20 28" fill="none" xmlns="http://www.w3.org/2000/svg">
<path d="M12.4337 1.20859C9.15793 1.65156 6.41262 2.02891 6.33605 2.03984C6.25949 2.05078 8.97199 2.06719 12.3681 2.07266L18.5314 2.07812V1.23047C18.5314 0.585156 18.515 0.382812 18.4657 0.388281C18.4275 0.39375 15.715 0.760156 12.4337 1.20859Z" fill="#666262"/>
<path d="M1.67109 2.71797C1.64922 2.73438 1.63281 3.26484 1.63281 3.88828V5.02031L2.01016 5.04219C2.31641 5.05859 2.42031 5.09141 2.58984 5.21719C2.69922 5.30469 2.84141 5.47422 2.89609 5.6C3.07656 5.99922 3.00547 6.61172 2.7375 6.9125C2.58437 7.08203 2.22891 7.21875 1.92266 7.21875H1.63281V8.36719V9.51563H1.84062C2.34375 9.51563 2.83594 9.82734 2.94531 10.2156C3.18047 11.0688 2.68828 11.7578 1.84062 11.7578H1.63281V12.9063V14.0547H1.90625C2.3875 14.0547 2.72109 14.2461 2.89609 14.6289C3.12031 15.1102 2.97812 15.7609 2.58984 16.0563C2.42031 16.1875 2.31641 16.2148 2.00469 16.2313L1.63281 16.2531L1.64375 17.4125L1.66016 18.5664L2.01562 18.5938C2.41484 18.6266 2.54609 18.6867 2.74297 18.9219C2.94531 19.157 3.01641 19.4359 2.98359 19.8078C2.92891 20.4094 2.52422 20.7813 1.91719 20.7813H1.63281V21.9242V23.0617L1.98281 23.0891C2.60078 23.1438 2.92891 23.4555 2.98359 24.057C3.01641 24.4234 2.93984 24.7023 2.74297 24.9375C2.54609 25.1727 2.41484 25.2328 2.01562 25.2656L1.66016 25.293L1.64375 26.4523L1.63281 27.6172H3.10937H4.58594L4.575 15.1594L4.55859 2.70703L3.13125 2.69063C2.34922 2.68516 1.69297 2.69609 1.67109 2.71797Z" fill="#666262"/>
<path d="M5.1875 15.1484V27.6172H12.4336H19.6797V15.1484V2.67969H12.4336H5.1875V15.1484ZM7.49531 6.49141C7.58828 6.57344 7.59375 6.71016 7.59375 8.59688V10.6094H7.97656H8.35937V8.62422C8.35937 6.91797 8.37031 6.62266 8.44687 6.51875C8.53984 6.38203 8.80234 6.35469 8.90078 6.46953C8.93906 6.52422 8.96641 7.18594 8.97187 8.56406L8.98828 10.582L9.3875 10.5984L9.78125 10.6148V8.61328C9.78125 7.33906 9.80312 6.57344 9.83594 6.50234C9.90703 6.37109 10.1477 6.36563 10.2844 6.49141C10.3773 6.57344 10.3828 6.71016 10.3828 8.59688V10.6094H10.7656H11.1484V8.62422C11.1484 6.91797 11.1594 6.62266 11.2359 6.51875C11.3289 6.3875 11.575 6.35469 11.6844 6.46406C11.7719 6.55156 11.7773 11.9492 11.6898 12.2445C11.5477 12.7203 11.0664 13.1688 10.5687 13.2945L10.3281 13.3547V13.8578C10.3281 14.1313 10.3773 16.3242 10.4375 18.725C10.5469 22.9852 10.5469 23.1 10.4484 23.2914C10.3062 23.5594 9.95078 23.8219 9.62266 23.893C9.09766 24.0023 8.50156 23.7234 8.29922 23.275C8.20078 23.0508 8.20625 22.925 8.30469 18.8672C8.36484 16.5648 8.41406 14.3883 8.41406 14.0219V13.3656L8.11328 13.2672C7.70859 13.1414 7.39141 12.8844 7.18906 12.5234L7.01953 12.2227L7.00312 9.41719C6.99219 7.50313 7.00859 6.58438 7.04687 6.50781C7.11797 6.37109 7.35312 6.36563 7.49531 6.49141ZM16.3164 6.55156C17.2898 7.01641 18.1211 8.58047 18.2305 10.1555C18.318 11.3695 17.7984 12.5563 16.9508 13.1031C16.7703 13.2234 16.6172 13.3383 16.6062 13.3711C16.5898 13.3984 16.6336 15.5805 16.6992 18.2109C16.7648 20.8414 16.8031 23.0617 16.7758 23.1383C16.6773 23.4992 16.3055 23.8 15.8406 23.9039C15.3594 24.0133 14.6648 23.6359 14.5336 23.193C14.4898 23.0508 14.5062 21.793 14.5883 18.4844C14.6539 16.0016 14.7031 13.8305 14.7031 13.6609V13.3492L14.4133 13.1633C13.8172 12.7805 13.3687 12.1242 13.1664 11.3313C12.718 9.57031 13.7734 6.96172 15.1406 6.475C15.4852 6.34922 15.95 6.38203 16.3164 6.55156Z" fill="#666262"/>
<path d="M7.59375 11.5938C7.59375 12.0313 7.67578 12.2664 7.9 12.4797C8.15703 12.7148 8.30469 12.7422 9.37109 12.7422C10.4375 12.7422 10.5906 12.7148 10.8367 12.4797C11.0883 12.2445 11.1484 12.075 11.1484 11.6211V11.2109H9.37109H7.59375V11.5938Z" fill="#666262"/>
<path d="M9.01573 13.9563C9.01573 14.2953 8.96651 16.4664 8.90635 18.7852C8.78604 23.4883 8.76417 23.111 9.16885 23.2805C9.39307 23.3735 9.64464 23.3078 9.83057 23.111L9.94542 22.9852L9.83604 18.643C9.77589 16.2531 9.72667 14.0875 9.72667 13.8196V13.3438H9.3712H9.01573V13.9563Z" fill="#666262"/>
<path d="M15.19 7.1094C14.5775 7.43206 13.9322 8.57503 13.7134 9.72346C13.6314 10.1664 13.6806 11.0414 13.8064 11.4297C13.9704 11.9219 14.2986 12.3539 14.7306 12.6438C15.3814 13.0813 15.3376 12.5289 15.1954 18.1289C15.1134 21.5633 15.097 22.9906 15.1353 23.0672C15.1681 23.1274 15.2993 23.2203 15.4306 23.2696C15.6493 23.3516 15.6931 23.3516 15.8681 23.2805C16.2509 23.1164 16.2345 23.3844 16.1251 18.9766C16.065 16.7946 16.0157 14.6016 16.0103 14.093C15.9993 13.0375 16.0103 13.0157 16.4697 12.7203C17.0657 12.3375 17.4157 11.8071 17.5743 11.0633C17.6782 10.5875 17.6782 10.2977 17.5743 9.72893C17.3829 8.60784 16.8142 7.55237 16.1907 7.15862C15.8845 6.96721 15.4962 6.94534 15.19 7.1094Z" fill="#666262"/>
<path d="M0.413288 5.73125C0.276569 5.88438 0.287507 6.36563 0.429694 6.50781C0.528132 6.60625 0.610163 6.61719 1.35391 6.61719H2.17423L2.2836 6.475C2.43673 6.27813 2.43673 5.91719 2.28907 5.75313C2.17969 5.63828 2.13048 5.63281 1.33751 5.63281C0.599226 5.63281 0.489851 5.64375 0.413288 5.73125Z" fill="#666262"/>
<path d="M0.467969 10.2265C0.342187 10.3305 0.320312 10.3851 0.320312 10.6367C0.320312 10.8883 0.342187 10.943 0.467969 11.0469C0.610156 11.1562 0.670312 11.1617 1.40312 11.1453C2.15234 11.1289 2.19609 11.1234 2.29453 10.9976C2.43125 10.8281 2.43125 10.4453 2.29453 10.2758C2.19609 10.15 2.15234 10.1445 1.40312 10.1281C0.670312 10.1117 0.610156 10.1172 0.467969 10.2265Z" fill="#666262"/>
<path d="M0.429687 14.7656C0.347656 14.8477 0.320312 14.9461 0.320312 15.1648C0.320312 15.6242 0.358594 15.6406 1.34844 15.6406C2.13047 15.6406 2.17969 15.6352 2.28906 15.5203C2.43672 15.3563 2.43672 14.9953 2.28359 14.7984L2.17422 14.6563H1.35391C0.610156 14.6563 0.528125 14.6672 0.429687 14.7656Z" fill="#666262"/>
<path d="M0.413288 19.2938C0.276569 19.4469 0.287507 19.9281 0.429694 20.0703C0.528132 20.1688 0.610163 20.1797 1.33204 20.1797C2.1086 20.1797 2.13594 20.1742 2.26173 20.043C2.44219 19.868 2.45313 19.4688 2.28907 19.3047C2.19063 19.2063 2.1086 19.1953 1.34298 19.1953C0.599226 19.1953 0.489851 19.2063 0.413288 19.2938Z" fill="#666262"/>
<path d="M0.511719 23.7453C0.347656 23.8383 0.320312 23.8984 0.320312 24.2047C0.320312 24.6586 0.385937 24.6914 1.37031 24.6914C2.16328 24.6914 2.19062 24.6859 2.29453 24.5602C2.45312 24.3688 2.43672 23.9859 2.26172 23.8164C2.13594 23.6852 2.10312 23.6797 1.37578 23.6797C0.916406 23.6797 0.577344 23.707 0.511719 23.7453Z" fill="#666262"/>
</svg>
