<svg width="40" height="40" viewBox="0 0 40 40" fill="none" xmlns="http://www.w3.org/2000/svg">
<g clip-path="url(#clip0_333_524)">
<path d="M7.75 0.125C7.26563 0.375 7.14844 0.640625 7.125 1.57812L7.09375 2.42188H4.00781C0.59375 2.42188 0.5625 2.42969 0.210938 2.92188C0.0390625 3.16406 0.0390625 3.19531 0.015625 6.30469L-0.0078125 9.45312H18.7891H37.5859L37.5625 6.30469C37.5391 3.19531 37.5391 3.16406 37.3672 2.92188C37.0156 2.42969 36.9766 2.42188 33.6016 2.42188H30.5469V1.67188C30.5469 0.8125 30.4375 0.492188 30.0469 0.210938C29.7109 -0.03125 29.0391 -0.03125 28.7031 0.210938C28.3125 0.492188 28.2031 0.8125 28.2031 1.67188V2.42188H25.8594H23.5156V1.67188C23.5156 0.8125 23.4063 0.492188 23.0156 0.210938C22.6797 -0.03125 22.0078 -0.03125 21.6719 0.210938C21.2813 0.492188 21.1719 0.8125 21.1719 1.67188V2.42188H18.8281H16.4844V1.67188C16.4844 0.8125 16.375 0.492188 15.9844 0.210938C15.6484 -0.03125 14.9766 -0.03125 14.6406 0.210938C14.25 0.492188 14.1406 0.8125 14.1406 1.67188V2.42188H11.7969H9.45313V1.67188C9.45313 0.820312 9.34375 0.492188 8.96094 0.21875C8.65625 0 8.08594 -0.046875 7.75 0.125ZM9.45313 4.30469C9.45313 6.39062 9.42188 6.5625 8.95313 6.89844C8.77344 7.02344 8.60156 7.07031 8.28125 7.07031C7.96094 7.07031 7.78906 7.02344 7.60938 6.89844C7.14063 6.5625 7.10938 6.39062 7.10938 4.30469V2.42188H8.28125H9.45313V4.30469ZM16.4844 4.30469C16.4844 6.39062 16.4531 6.5625 15.9844 6.89844C15.8047 7.02344 15.6328 7.07031 15.3125 7.07031C14.9922 7.07031 14.8203 7.02344 14.6406 6.89844C14.1719 6.5625 14.1406 6.39062 14.1406 4.30469V2.42188H15.3125H16.4844V4.30469ZM23.5156 4.30469C23.5156 6.39062 23.4844 6.5625 23.0156 6.89844C22.8359 7.02344 22.6641 7.07031 22.3438 7.07031C22.0234 7.07031 21.8516 7.02344 21.6719 6.89844C21.2031 6.5625 21.1719 6.39062 21.1719 4.30469V2.42188H22.3438H23.5156V4.30469ZM30.5469 4.30469C30.5469 6.39062 30.5156 6.5625 30.0469 6.89844C29.8672 7.02344 29.6953 7.07031 29.375 7.07031C29.0547 7.07031 28.8828 7.02344 28.7031 6.89844C28.2344 6.5625 28.2031 6.39062 28.2031 4.30469V2.42188H29.375H30.5469V4.30469Z" fill="#666262"/>
<path d="M0 23.0469C0 34.1719 0 34.3047 0.15625 34.6094C0.257813 34.8125 0.421875 34.9766 0.625 35.0781C0.929688 35.2344 1.07031 35.2344 9.41406 35.2344C14.0781 35.2344 17.8906 35.2188 17.8906 35.2031C17.8906 35.1875 17.75 34.8828 17.5859 34.5156C16.9609 33.1719 16.5938 31.5859 16.5156 29.9219C16.4609 28.75 16.5313 27.9766 16.8438 26.5703L17.0469 25.6875L16.8438 25.4766C16.4609 25.0703 16.3906 24.625 16.6406 24.1406C16.8203 23.7812 17.2734 23.5156 17.6797 23.5156C17.9297 23.5156 17.9609 23.4766 18.3125 22.8438C18.5234 22.4766 18.8438 21.9688 19.0313 21.7109C19.2188 21.4609 19.375 21.2344 19.375 21.2109C19.375 21.1875 18.9375 21.1719 18.3984 21.1719C17.2266 21.1719 16.8984 21.0547 16.6406 20.5469C16.4453 20.1562 16.4453 19.8438 16.6406 19.4531C16.9219 18.9062 17.1875 18.8281 18.7969 18.8281C20.0469 18.8281 20.2188 18.8438 20.5234 18.9922C20.7109 19.0859 20.9063 19.2422 20.9609 19.3516L21.0625 19.5391L21.4531 19.2422C22.4141 18.4766 23.4453 17.8906 24.6328 17.4062C25.7578 16.9531 26.7266 16.7266 28.3203 16.5391C28.4531 16.5234 28.1563 16.5 27.6719 16.4922C26.6094 16.4844 26.2656 16.3516 26.0156 15.8594C25.8203 15.4688 25.8203 15.1562 26.0156 14.7656C26.2969 14.2188 26.5625 14.1406 28.2031 14.1406C29.4609 14.1406 29.6484 14.1562 29.9219 14.2969C30.2734 14.4766 30.5469 14.9219 30.5469 15.3125C30.5469 15.6875 30.2734 16.1484 29.9375 16.3203C29.6719 16.4609 29.6641 16.4766 29.8438 16.4844C30.4141 16.5 31.9297 16.7344 32.5938 16.9062C34.1797 17.3125 35.7734 18.0781 37.0469 19.0391C37.2891 19.2266 37.5078 19.375 37.5313 19.375C37.5547 19.375 37.5781 17.6719 37.5781 15.5859V11.7969H18.7891H0V23.0469ZM11.1719 14.2969C11.5234 14.4766 11.7969 14.9219 11.7969 15.3125C11.7969 15.7031 11.5234 16.1484 11.1719 16.3281C10.8984 16.4688 10.7109 16.4844 9.45313 16.4844C7.8125 16.4844 7.54688 16.4062 7.26563 15.8594C7.07031 15.4688 7.07031 15.1562 7.26563 14.7656C7.54688 14.2188 7.78125 14.1484 9.4375 14.1406C10.7188 14.1406 10.8984 14.1562 11.1719 14.2969ZM20.5469 14.2969C20.8984 14.4766 21.1719 14.9219 21.1719 15.3125C21.1719 15.7031 20.8984 16.1484 20.5469 16.3281C20.2734 16.4688 20.0859 16.4844 18.8281 16.4844C17.1875 16.4844 16.9219 16.4062 16.6406 15.8594C16.4453 15.4688 16.4453 15.1562 16.6406 14.7656C16.9219 14.2188 17.1563 14.1484 18.8125 14.1406C20.0938 14.1406 20.2734 14.1562 20.5469 14.2969ZM11.1719 18.9844C11.5234 19.1641 11.7969 19.6094 11.7969 20C11.7969 20.3906 11.5234 20.8359 11.1719 21.0156C10.8984 21.1562 10.7109 21.1719 9.45313 21.1719C7.8125 21.1719 7.54688 21.0938 7.26563 20.5469C7.07031 20.1562 7.07031 19.8438 7.26563 19.4531C7.54688 18.9062 7.78125 18.8359 9.4375 18.8281C10.7188 18.8281 10.8984 18.8438 11.1719 18.9844ZM11.1719 23.6719C11.5234 23.8516 11.7969 24.2969 11.7969 24.6875C11.7969 25.0781 11.5234 25.5234 11.1719 25.7031C10.8984 25.8438 10.7109 25.8594 9.45313 25.8594C7.8125 25.8594 7.54688 25.7812 7.26563 25.2344C7.07031 24.8438 7.07031 24.5312 7.26563 24.1406C7.54688 23.5938 7.78125 23.5234 9.4375 23.5156C10.7188 23.5156 10.8984 23.5312 11.1719 23.6719ZM11.1719 28.3594C11.5234 28.5391 11.7969 28.9844 11.7969 29.375C11.7969 29.7656 11.5234 30.2109 11.1719 30.3906C10.8984 30.5312 10.7109 30.5469 9.45313 30.5469C7.8125 30.5469 7.54688 30.4688 7.26563 29.9219C7.07031 29.5312 7.07031 29.2188 7.26563 28.8281C7.54688 28.2812 7.78125 28.2109 9.4375 28.2031C10.7188 28.2031 10.8984 28.2188 11.1719 28.3594Z" fill="#666262"/>
<path d="M27.9687 19.0234C24.4219 19.5234 21.2187 21.9609 19.8125 25.2344C18.375 28.5703 18.6953 32.2734 20.6797 35.2734C21.3672 36.3125 22.5937 37.5391 23.6328 38.2266C27.1719 40.5625 31.7344 40.5625 35.2734 38.2266C36.3125 37.5391 37.5391 36.3125 38.2266 35.2734C40.5625 31.7344 40.5625 27.1719 38.2266 23.6328C37.5391 22.5938 36.3125 21.3672 35.2734 20.6797C33.1016 19.25 30.5312 18.6641 27.9687 19.0234ZM30 23.75C30.2031 23.8516 30.3672 24.0156 30.4687 24.2188C30.6094 24.5 30.625 24.6719 30.625 26.4063V28.2813H32.5C34.2344 28.2813 34.4062 28.2969 34.6875 28.4375C35.0391 28.6172 35.3125 29.0625 35.3125 29.4531C35.3125 29.8438 35.0391 30.2891 34.6875 30.4688C34.3984 30.6172 34.2344 30.625 31.7969 30.625C29.3594 30.625 29.1953 30.6172 28.9062 30.4688C28.7031 30.3672 28.5391 30.2031 28.4375 30C28.2891 29.7109 28.2812 29.5469 28.2812 27.1094C28.2812 24.6719 28.2891 24.5078 28.4375 24.2188C28.7266 23.6484 29.4062 23.4453 30 23.75Z" fill="#666262"/>
</g>
<defs>
<clipPath id="clip0_333_524">
<rect width="40" height="40" fill="white"/>
</clipPath>
</defs>
</svg>
