<svg width="42" height="41" viewBox="0 0 42 41" fill="none" xmlns="http://www.w3.org/2000/svg">
<path d="M4.54844 0.120117C4.19609 0.240234 3.81973 0.576563 3.64355 0.91289C3.57148 1.04902 2.82676 3.57949 1.97793 6.54238L0.44043 11.9316H5.50938H10.5783L10.6584 11.5072C10.7064 11.283 11.243 8.59238 11.8596 5.54141L12.9646 0H8.91269C5.68555 0.008008 4.79668 0.0320311 4.54844 0.120117Z" fill="#307A59"/>
<path d="M15.279 5.86172C14.6384 9.08887 14.1099 11.7795 14.1099 11.8275C14.1099 11.9076 15.4472 11.9316 20.5161 11.9316C25.5851 11.9316 26.9224 11.9076 26.9224 11.8275C26.9224 11.7795 26.3938 9.08887 25.7532 5.86172L24.5761 0H20.5161H16.4562L15.279 5.86172Z" fill="#307A59"/>
<path d="M29.1725 5.54141C29.7891 8.59238 30.3256 11.283 30.3736 11.5072L30.4537 11.9316H35.5227H40.5916L39.0541 6.54238C38.2053 3.57949 37.4525 1.04102 37.3885 0.904883C37.2123 0.560547 36.7479 0.18418 36.3955 0.0880861C36.2033 0.0320311 34.6338 0 32.0793 0H28.0674L29.1725 5.54141Z" fill="#307A59"/>
<path d="M0.0320313 14.9106C0.0640625 15.9436 0.0960938 16.2079 0.248242 16.6002C0.592578 17.4891 1.39336 18.2579 2.31426 18.6022C2.75469 18.7624 2.93086 18.7784 5.65352 18.8024C9.40918 18.8344 9.90567 18.7463 10.8346 17.8815C11.3791 17.377 11.6193 16.9846 11.8355 16.2639L12.0037 15.6793L12.0518 16.0077C12.1158 16.5362 12.5402 17.337 12.9887 17.7774C13.4531 18.2499 14.1979 18.6262 14.8785 18.7383C15.5031 18.8424 25.5289 18.8424 26.1535 18.7383C26.8342 18.6262 27.5789 18.2499 28.0434 17.7774C28.4918 17.337 28.9162 16.5362 28.9803 16.0077L29.0283 15.6793L29.1965 16.2639C29.4127 16.9846 29.6529 17.377 30.1975 17.8815C31.1264 18.7463 31.6229 18.8344 35.3785 18.8024C38.1012 18.7784 38.2773 18.7624 38.7178 18.6022C39.6387 18.2579 40.4395 17.4891 40.7838 16.6002C40.9359 16.2079 40.968 15.9436 41 14.9106L41.032 13.6934H20.516H0L0.0320313 14.9106Z" fill="#307A59"/>
<path d="M11.7873 19.3389C11.6032 19.5631 10.7864 20.0035 10.1457 20.2357L9.50511 20.46L6.26995 20.484C3.57933 20.508 2.9307 20.492 2.4182 20.3879C2.08187 20.3158 1.77757 20.2598 1.74554 20.2598C1.72152 20.2598 1.7055 24.648 1.71351 30.0133L1.73753 39.7748L1.97777 40.1592C2.15394 40.4475 2.33812 40.6156 2.65042 40.7758L3.07484 41H4.94866H6.82249L6.83851 33.0883L6.86253 25.1846L7.0387 24.8643C7.25491 24.4639 7.50316 24.2236 7.87952 24.0635C8.32796 23.8793 17.3287 23.8793 17.7772 24.0635C18.1535 24.2236 18.4018 24.4639 18.618 24.8643L18.7942 25.1846L18.8182 33.0883L18.8342 41H28.3955H37.9569L38.3813 40.7758C38.6936 40.6156 38.8778 40.4475 39.0539 40.1592L39.2942 39.7748L39.3182 30.0133C39.3262 24.648 39.3102 20.2598 39.2862 20.2598C39.2541 20.2598 38.9498 20.3158 38.6135 20.3879C38.101 20.492 37.4524 20.508 34.7617 20.484L31.5266 20.46L30.886 20.2357C30.2453 20.0035 29.4285 19.5631 29.2444 19.3389C29.1082 19.1707 29.0682 19.1867 28.7158 19.467C28.2594 19.8273 27.3545 20.2357 26.6899 20.3799C25.841 20.5561 15.2067 20.5561 14.3578 20.3799C13.6692 20.2357 12.8844 19.8914 12.3799 19.507C11.9555 19.1787 11.9235 19.1707 11.7873 19.3389ZM33.1522 24.0635C33.5285 24.2236 33.7768 24.4639 33.993 24.8643C34.1612 25.1766 34.1692 25.2646 34.1692 28.1875V31.1904L33.969 31.5508C33.8569 31.743 33.6086 32.0152 33.4244 32.1514L33.0721 32.3916L28.3795 32.4156C25.1844 32.4316 23.5828 32.4156 23.3826 32.3516C22.9903 32.2395 22.6299 31.9271 22.4137 31.5187C22.2375 31.1984 22.2375 31.1344 22.2375 28.1875C22.2375 25.2646 22.2455 25.1766 22.4137 24.8643C22.6219 24.4719 22.8701 24.2316 23.2385 24.0715C23.6629 23.8873 32.7117 23.8873 33.1522 24.0635Z" fill="#307A59"/>
</svg>
